<?xml version="1.0" standalone="no"?>
<!DOCTYPE svg PUBLIC "-//W3C//DTD SVG 1.1//EN" "http://www.w3.org/Graphics/SVG/1.1/DTD/svg11.dtd" >
<!--
2013-9-30: Created.
-->
<svg>
<metadata>
Created by iconfont
</metadata>
<defs>

<font id="iconfont" horiz-adv-x="1024" >
  <font-face
    font-family="iconfont"
    font-weight="500"
    font-stretch="normal"
    units-per-em="1024"
    ascent="896"
    descent="-128"
  />
    <missing-glyph />
    
    <glyph glyph-name="x" unicode="x" horiz-adv-x="1001"
d="M281 543q-27 -1 -53 -1h-83q-18 0 -36.5 -6t-32.5 -18.5t-23 -32t-9 -45.5v-76h912v41q0 16 -0.5 30t-0.5 18q0 13 -5 29t-17 29.5t-31.5 22.5t-49.5 9h-133v-97h-438v97zM955 310v-52q0 -23 0.5 -52t0.5 -58t-10.5 -47.5t-26 -30t-33 -16t-31.5 -4.5q-14 -1 -29.5 -0.5
t-29.5 0.5h-32l-45 128h-439l-44 -128h-29h-34q-20 0 -45 1q-25 0 -41 9.5t-25.5 23t-13.5 29.5t-4 30v167h911zM163 247q-12 0 -21 -8.5t-9 -21.5t9 -21.5t21 -8.5q13 0 22 8.5t9 21.5t-9 21.5t-22 8.5zM316 123q-8 -26 -14 -48q-5 -19 -10.5 -37t-7.5 -25t-3 -15t1 -14.5
t9.5 -10.5t21.5 -4h37h67h81h80h64h36q23 0 34 12t2 38q-5 13 -9.5 30.5t-9.5 34.5q-5 19 -11 39h-368zM336 498v228q0 11 2.5 23t10 21.5t20.5 15.5t34 6h188q31 0 51.5 -14.5t20.5 -52.5v-227h-327z" />
    

    
    <glyph glyph-name="dianhua" unicode="&#58902;" d="M744.426607-147.264627 744.408187-147.264627l-4.619204 0.103354c-107.472733 5.497201-252.610298 106.652042-388.285351 270.595928l-50.115398 60.531632C165.713182 347.922453 94.631264 508.051453 111.25385 612.319192c11.732206 73.561389 121.098056 135.641283 183.590342 135.641283 30.780027 0 41.930995-15.31787 45.829791-24.464181 35.375695-62.86784 79.147618-172.198897 79.349209-211.411991l0.013303-2.790556-1.000793-2.605338c-7.801686-20.612457-25.25929-30.487362-40.661072-39.197744-20.290115-11.466146-31.82073-18.99461-33.228799-40.670282-0.418532-6.577812 5.254677-36.501332 94.765317-146.84137l38.268582-46.209438c89.75828-105.928564 117.998461-117.331265 124.610042-118.27373 21.644973-3.010567 31.837102 6.479575 47.40466 23.544229 11.850909 12.993942 25.295106 27.740808 47.478338 30.988782l2.808976 0.400113 2.761903-0.586354c39.08825-8.242731 139.142014-72.724325 195.942671-120.596635 8.200776-5.442966 22.512736-21.601994 11.17962-57.299007C892.588041-64.115881 815.084876-147.264627 744.426607-147.264627L744.426607-147.264627z"  horiz-adv-x="1024" />

    
    <glyph glyph-name="key" unicode="&#58914;" d="M517.864 396.165c-56.774 54.214-58.85 144.188-4.637 200.961 54.213 56.773 144.188 58.849 200.961 4.637 56.775-54.214 58.85-144.187 4.637-200.961-54.212-56.774-144.186-58.85-200.961-4.637zM687.195 431.006c37.534 39.308 36.095 101.597-3.21 139.129-39.304 37.532-101.594 36.094-139.128-3.211-37.533-39.307-36.093-101.594 3.212-139.126 39.305-37.534 101.592-36.1 139.126 3.208zM479.104 213.083l-101.496-106.29c26.207-25.025 27.168-66.54 2.142-92.749-25.028-26.21-66.544-27.166-92.75-2.141l-58.361-53.028c0 0-68.751-11.101-100.379 19.101-31.63 30.206-37.865 112.721-37.865 112.721l246.374 258.303c-63.174 117.609-47.247 267.163 49.939 368.94 36.518 38.243 80.347 65.157 127.165 81.041l1.085-46.27c-35.443-14.08-68.567-35.597-96.619-64.974-80.271-84.065-96.1-205.866-49.434-305.083l23.076-39.164-245.89-257.505c0 0 0.594-49.779 17.243-65.678 14.888-14.217 61.832-9.829 61.832-9.829l60.408 63.261 31.631-30.204c8.741-8.346 22.57-8.031 30.917 0.711 8.347 8.742 8.027 22.571-0.713 30.917l-31.632 30.208 156.456 163.847 39.009-22.481c101.259-42.039 222.202-20.61 302.475 63.453 104.251 109.179 100.26 282.211-8.917 386.465-33.591 32.076-73.261 53.83-115.093 65.493l-1.03 45.153c53.198-12.471 103.945-38.548 146.324-79.016 126.645-120.931 131.278-321.65 10.345-448.296-97.186-101.777-245.844-124.588-366.24-66.907z"  horiz-adv-x="1024" />

    
    <glyph glyph-name="ico_zuo" unicode="&#58885;" d="M209.584 269.56l-0.013-0.014 1.833-1.731 511.929-491.25 91.372 99.544-417.148 400.296 388.24 429.624-98.064 92.648-478.149-529.117z"  horiz-adv-x="1024" />

    
    <glyph glyph-name="fenxiang" unicode="&#58921;" d="M988.567072 378.011445c-19.167827 0-34.687687-15.45586-34.687687-34.527688l0-326.461052c0-41.887622-34.239691-75.967314-76.319311-75.967314L145.662684-58.944608c-42.07962 0-76.287311 34.079692-76.287311 75.967314L69.375373 702.520515c0 41.887622 34.207691 75.967314 76.287311 75.967314l238.557846 0c19.167827 0 34.655687 15.45586 34.655687 34.527688 0 19.071828-15.51986 34.527688-34.655687 34.527688L145.662684 847.543205C65.34341 847.543205 0 782.519792 0 702.520515l0-685.497809C0-62.912573 65.34341-127.999985 145.662684-127.999985l731.89739 0c80.319275 0 145.662684 65.087412 145.662684 145.02269L1023.222759 343.483757C1023.222759 362.555585 1007.702899 378.011445 988.567072 378.011445L988.567072 378.011445 988.567072 378.011445zM260.701646 175.677273c-3.423969-18.78383 9.023919-36.735668 27.871748-40.223637 2.111981-0.383997 4.223962-0.575995 6.303943-0.575995 16.415852 0 31.00772 11.679895 34.079692 28.319744 0.255998 1.471987 27.775749 146.686675 123.550884 291.069371 55.743497 83.999241 123.294886 150.814638 200.734187 198.590206 73.951332 45.567588 157.502578 73.951332 249.277749 84.767234l-112.92698-115.966953C776.280989 607.993368 776.632986 586.105566 790.360862 572.825686c6.719939-6.495941 15.423861-9.727912 24.127782-9.727912 9.055918 0 18.111836 3.519968 24.895775 10.495905l174.814421 179.550378c0.127999 0.127999 0.255998 0.255998 0.383997 0.415996 0.191998 0.191998 0.351997 0.383997 0.543995 0.575995 0.191998 0.223998 0.383997 0.447996 0.575995 0.639994 0.032 0.032 0.063999 0.063999 0.095999 0.095999 0.159999 0.191998 0.351997 0.415996 0.511995 0.639994 0.191998 0.223998 0.383997 0.447996 0.575995 0.671994 0.159999 0.223998 0.319997 0.447996 0.511995 0.671994 0.191998 0.255998 0.383997 0.543995 0.575995 0.799993 0.127999 0.191998 0.255998 0.351997 0.351997 0.543995 0.127999 0.159999 0.255998 0.351997 0.383997 0.543995 0.032 0.063999 0.063999 0.127999 0.127999 0.191998 0.032 0.032 0.063999 0.095999 0.095999 0.127999 0.095999 0.159999 0.191998 0.351997 0.319997 0.543995 0.191998 0.319997 0.351997 0.639994 0.543995 0.927992 0.095999 0.191998 0.191998 0.351997 0.287997 0.543995 0.032 0.063999 0.063999 0.127999 0.095999 0.191998 0.127999 0.255998 0.287997 0.479996 0.415996 0.735993 0.095999 0.191998 0.191998 0.415996 0.287997 0.639994 0.159999 0.287997 0.287997 0.575995 0.415996 0.895992 0.095999 0.223998 0.191998 0.479996 0.287997 0.703994 0.127999 0.255998 0.223998 0.543995 0.351997 0.799993 0.095999 0.255998 0.191998 0.543995 0.287997 0.799993 0.095999 0.255998 0.191998 0.511995 0.255998 0.735993 0.095999 0.287997 0.191998 0.607995 0.287997 0.895992 0.063999 0.255998 0.127999 0.479996 0.191998 0.703994 0.095999 0.319997 0.191998 0.607995 0.255998 0.927992 0.032 0.191998 0.095999 0.383997 0.159999 0.575995 0 0.063999 0 0.095999 0.032 0.159999 0.063999 0.287997 0.127999 0.607995 0.191998 0.895992 0 0.159999 0.063999 0.351997 0.095999 0.511995 0 0.127999 0.032 0.287997 0.063999 0.415996 0.032 0.223998 0.063999 0.479996 0.095999 0.671994 0.032 0.159999 0.063999 0.319997 0.063999 0.479996 0.032 0.223998 0.063999 0.447996 0.095999 0.671994 0 0.127999 0.032 0.255998 0.032 0.383997s0.032 0.223998 0.032 0.351997c0 0.063999 0 0.127999 0.032 0.191998 0 0.319997 0.032 0.607995 0.063999 0.895992 0 0.032 0 0.095999 0 0.127999 0 0.191998 0 0.351997 0 0.543995 0 0 0 0 0.032 0 0 0.383997 0 0.735993 0 1.11999l0 0 0 0c0 0.575995 0 1.15199-0.032 1.695985 0 0.032 0 0.095999-0.032 0.127999 0 0.095999 0 0.191998 0 0.287997L1024.150751 779.38382c-0.032 0.415996-0.063999 0.799993-0.095999 1.183989-0.032 0.095999-0.032 0.223998-0.063999 0.351997l0 0c0 0.063999 0 0.127999 0 0.191998-0.032 0.351997-0.095999 0.703994-0.159999 1.08799 0 0.159999-0.032 0.287997-0.063999 0.447996 0 0.063999 0 0.127999-0.032 0.159999-0.032 0.319997-0.095999 0.607995-0.159999 0.895992-0.032 0.191998-0.095999 0.383997-0.127999 0.607995 0 0.032 0 0.063999 0 0.063999-0.032 0.063999-0.032 0.127999-0.063999 0.191998-0.032 0.223998-0.095999 0.447996-0.127999 0.671994-0.095999 0.351997-0.191998 0.703994-0.287997 1.08799-0.063999 0.127999-0.095999 0.255998-0.127999 0.415996-0.127999 0.415996-0.255998 0.831992-0.415996 1.279988-0.032 0.063999-0.032 0.159999-0.063999 0.255998-0.095999 0.287997-0.191998 0.607995-0.319997 0.895992 0 0.032-0.032 0.063999-0.032 0.095999-0.063999 0.127999-0.095999 0.255998-0.159999 0.383997-0.032 0.063999-0.032 0.095999-0.063999 0.127999-0.127999 0.287997-0.255998 0.607995-0.383997 0.895992-0.063999 0.159999-0.159999 0.351997-0.223998 0.511995 0 0 0 0.032 0 0.032-0.159999 0.319997-0.287997 0.639994-0.447996 0.959991 0 0 0 0 0 0-0.351997 0.671994-0.671994 1.311988-1.05599 1.983982l0 0c-0.287997 0.479996-0.543995 0.927992-0.831992 1.375988-0.032 0.032-0.063999 0.095999-0.063999 0.127999-0.191998 0.255998-0.351997 0.543995-0.543995 0.767993l-0.032 0.032c-0.063999 0.127999-0.159999 0.255998-0.255998 0.383997s-0.191998 0.255998-0.319997 0.415996c-0.063999 0.095999-0.127999 0.191998-0.223998 0.319997-0.063999 0.095999-0.127999 0.191998-0.191998 0.287997-0.095999 0.095999-0.159999 0.191998-0.255998 0.287997-0.159999 0.223998-0.351997 0.479996-0.543995 0.703994-0.127999 0.127999-0.223998 0.223998-0.319997 0.351997-0.032 0.063999-0.095999 0.127999-0.159999 0.223998C1015.574828 799.735637 1015.35083 799.991634 1015.126832 800.279632c-0.063999 0.063999-0.127999 0.127999-0.191998 0.191998-0.351997 0.383997-0.671994 0.735993-1.023991 1.08799-0.032 0.032-0.063999 0.063999-0.095999 0.095999-0.383997 0.383997-0.735993 0.735993-1.11999 1.08799-0.032 0-0.063999 0.032-0.063999 0.032-0.415996 0.351997-0.767993 0.703994-1.215989 1.023991 0 0-0.032 0.032-0.063999 0.032-0.383997 0.319997-0.767993 0.639994-1.183989 0.927992-0.032 0.032-0.095999 0.063999-0.159999 0.127999-0.383997 0.255998-0.735993 0.543995-1.11999 0.767993-0.095999 0.063999-0.191998 0.159999-0.319997 0.223998-0.191998 0.127999-0.383997 0.255998-0.575995 0.351997-0.159999 0.095999-0.319997 0.191998-0.447996 0.287997-0.191998 0.095999-0.351997 0.223998-0.543995 0.319997-0.159999 0.095999-0.287997 0.191998-0.447996 0.287997-0.191998 0.063999-0.351997 0.159999-0.511995 0.255998-0.191998 0.095999-0.415996 0.223998-0.607995 0.319997-0.319997 0.159999-0.607995 0.287997-0.863992 0.447996-0.223998 0.127999-0.479996 0.223998-0.671994 0.319997-0.287997 0.127999-0.575995 0.255998-0.831992 0.383997-0.255998 0.095999-0.511995 0.223998-0.735993 0.319997-0.255998 0.095999-0.511995 0.223998-0.767993 0.319997-0.287997 0.095999-0.575995 0.191998-0.831992 0.319997-0.255998 0.063999-0.479996 0.159999-0.703994 0.223998-0.159999 0.032-0.287997 0.095999-0.447996 0.127999L744.953272 894.230783c-18.175836 6.015946-37.823658-3.807966-43.839604-21.919802-6.015946-18.111836 3.807966-37.63166 22.015801-43.647606l102.399075-33.791695c-75.29532-16.159854-145.118689-43.999603-208.798114-83.263248-86.047223-53.055521-160.798548-126.814855-222.077994-219.26202C291.133371 336.347822 261.917635 182.141214 260.701646 175.677273L260.701646 175.677273 260.701646 175.677273zM260.701646 175.677273"  horiz-adv-x="1025" />

    
    <glyph glyph-name="iconfontshare" unicode="&#58999;" d="M773.287 272.018c-66.071 0-123.735-34.525-156.916-86.306L416.478 299.941c12.915 25.386 20.862 53.676 20.862 84.059 0 18.768-3.622 36.543-8.773 53.645L636.514 556.46c34.082-36.956 82.531-60.477 136.772-60.477 103.103 0 186.642 83.54 186.642 186.642S876.389 869.267 773.287 869.267s-186.642-83.54-186.642-186.642c0-18.768 3.622-36.543 8.773-53.676L387.47 510.181c-34.082 36.91-82.531 60.477-136.772 60.477-103.103 0-186.642-83.54-186.642-186.642s83.54-186.642 186.642-186.642c42.549 0 81.339 14.779 112.731 38.744L588.692 105.55c-0.749-6.725-2.048-13.22-2.048-20.159 0-103.103 83.54-186.642 186.642-186.642s186.642 83.54 186.642 186.642S876.389 272.018 773.287 272.018"  horiz-adv-x="1024" />

    
    <glyph glyph-name="zuo" unicode="&#58976;" d="M236.686 352.85l491.806-448.184c16.139-16.057 42.313-16.057 58.45 0s16.138 42.107 0 58.162L324.791 383.98 786.942 805.171c16.138 16.056 16.138 42.107 0 58.163-16.179 16.056-42.312 16.056-58.45 0L236.727 415.15c-8.603-8.561-12.288-19.947-11.715-31.13C224.439 372.756 228.125 361.41 236.686 352.85z"  horiz-adv-x="1024" />

    
    <glyph glyph-name="left" unicode="&#58897;" d="M236.686 352.85l491.806-448.184c16.139-16.057 42.313-16.057 58.45 0s16.138 42.107 0 58.162l-462.151 421.152 462.151 421.191c16.138 16.056 16.138 42.107 0 58.163-16.179 16.056-42.312 16.056-58.45 0l-491.765-448.184c-8.603-8.561-12.288-19.947-11.715-31.13-0.573-11.264 3.113-22.61 11.674-31.17z"  horiz-adv-x="1024" />

    
    <glyph glyph-name="cuowu" unicode="&#58945;" d="M547.2 384l416 416c9.6 9.6 9.6 25.6 0 35.2s-25.6 9.6-35.2 0l-416-416-416 416c-9.6 9.6-25.6 9.6-35.2 0s-9.6-25.6 0-35.2l416-416-416-416c-9.6-9.6-9.6-25.6 0-35.2s25.6-9.6 35.2 0l416 416 416-416c9.6-9.6 25.6-9.6 35.2 0s9.6 25.6 0 35.2L547.2 384z"  horiz-adv-x="1024" />

    
    <glyph glyph-name="shijian" unicode="&#58957;" d="M512 832c-256 0-460.8-208-460.8-460.8s208-460.8 460.8-460.8 460.8 208 460.8 460.8S768 832 512 832zM512-44.8c-227.2 0-412.8 185.6-412.8 412.8s185.6 412.8 412.8 412.8 412.8-185.6 412.8-412.8S742.4-44.8 512-44.8zM809.6 352l-278.4 0 0 281.6c0 12.8-9.6 22.4-22.4 22.4-12.8 0-22.4-9.6-22.4-22.4l0-307.2c0-12.8 9.6-22.4 22.4-22.4 0 0 3.2 0 3.2 0l297.6 0c12.8 0 22.4 9.6 22.4 22.4C832 342.4 822.4 352 809.6 352z"  horiz-adv-x="1024" />

    
    <glyph glyph-name="shouhuodizhi" unicode="&#58958;" d="M518.4 848c-214.4 0-390.4-176-390.4-393.6 0-48 16-99.2 41.6-156.8 28.8-57.6 70.4-118.4 118.4-182.4 35.2-41.6 73.6-83.2 108.8-121.6 12.8-12.8 25.6-25.6 35.2-35.2 6.4-6.4 12.8-9.6 12.8-12.8l0 0c38.4-38.4 102.4-38.4 137.6 0 3.2 3.2 6.4 6.4 12.8 12.8 9.6 9.6 22.4 22.4 35.2 35.2 38.4 38.4 73.6 80 108.8 121.6 51.2 60.8 92.8 124.8 118.4 182.4 28.8 57.6 41.6 108.8 41.6 156.8C908.8 672 732.8 848 518.4 848zM822.4 320c-25.6-54.4-64-112-115.2-172.8-35.2-41.6-70.4-83.2-105.6-118.4-12.8-12.8-25.6-25.6-35.2-35.2-6.4-6.4-9.6-9.6-12.8-12.8-19.2-19.2-51.2-19.2-70.4 0l0 0c-3.2 3.2-6.4 6.4-12.8 12.8-9.6 9.6-22.4 22.4-35.2 35.2-35.2 38.4-73.6 76.8-105.6 118.4-48 60.8-86.4 118.4-115.2 172.8-25.6 51.2-38.4 96-38.4 134.4 0 192 153.6 345.6 342.4 345.6 188.8 0 342.4-153.6 342.4-345.6C860.8 416 848 371.2 822.4 320zM518.4 633.6c-96 0-169.6-76.8-169.6-172.8 0-96 76.8-172.8 169.6-172.8s169.6 76.8 169.6 172.8C688 556.8 614.4 633.6 518.4 633.6zM518.4 339.2c-67.2 0-121.6 54.4-121.6 124.8s54.4 124.8 121.6 124.8c67.2 0 121.6-54.4 121.6-124.8S585.6 339.2 518.4 339.2z"  horiz-adv-x="1024" />

    
    <glyph glyph-name="xiaoxizhongxin" unicode="&#58981;" d="M585.6-9.6 585.6-9.6c25.6 32 38.4 44.8 41.6 44.8 208 38.4 345.6 198.4 345.6 396.8 3.2 227.2-204.8 406.4-460.8 406.4s-464-179.2-464-406.4c0-198.4 140.8-358.4 345.6-396.8 3.2 0 16-12.8 41.6-44.8l0 0c32-41.6 51.2-64 73.6-64S550.4-51.2 585.6-9.6M620.8 92.8c-19.2-3.2-32-19.2-67.2-64l0 0c-22.4-25.6-41.6-44.8-41.6-44.8l-9.6 9.6c-6.4 6.4-16 19.2-25.6 32-38.4 48-51.2 64-70.4 67.2-185.6 32-307.2 172.8-307.2 345.6 0 192 185.6 352 416 352s416-160 416-352C928 262.4 806.4 124.8 620.8 92.8zM281.6 425.6a1.4 1.5 0 1 0 89.6 0 1.4 1.5 0 1 0-89.6 0ZM467.2 425.6a1.4 1.5 0 1 0 89.6 0 1.4 1.5 0 1 0-89.6 0ZM652.8 425.6a1.4 1.5 0 1 0 89.6 0 1.4 1.5 0 1 0-89.6 0Z"  horiz-adv-x="1024" />

    
    <glyph glyph-name="qiche" unicode="&#58880;" d="M512-128C229.232281-128 0 101.232281 0 384 0 666.767719 229.232281 896 512 896 794.767719 896 1024 666.767719 1024 384 1024 101.232281 794.767719-128 512-128ZM512 860.070175C249.065544 860.070175 35.929825 646.934456 35.929825 384 35.929825 121.065544 249.065544-92.070175 512-92.070175 774.934456-92.070175 988.070175 121.065544 988.070175 384 988.070175 646.934456 774.934456 860.070175 512 860.070175ZM788.965053 500.77193C786.755368 500.77193 784.671439 500.969544 782.551579 501.077333L825.882947 446.877193 825.882947 285.192982 825.882947 249.263158 825.882947 195.368421C825.882947 175.517193 809.355228 159.438596 788.965053 159.438596L715.111298 159.438596C694.703158 159.438596 678.175439 175.517193 678.175439 195.368421L678.175439 249.263158 345.824561 249.263158 345.824561 195.368421C345.824561 175.517193 329.296842 159.438596 308.888702 159.438596L235.034947 159.438596C214.644772 159.438596 198.117053 175.517193 198.117053 195.368421L198.117053 249.263158 198.117053 285.192982 198.117053 446.877193 248.113404 501.616281C243.909614 501.113263 239.562105 500.77193 235.034947 500.77193 204.440702 500.77193 179.649123 512.844351 179.649123 527.719298 179.649123 542.594246 204.440702 554.666667 235.034947 554.666667 256.125754 554.666667 274.216421 548.864 283.57614 540.438456L345.824561 608.561404 696.643368 608.561404 747.232561 545.271018C757.382737 550.98386 772.203789 554.666667 788.965053 554.666667 819.559298 554.666667 844.350877 542.594246 844.350877 527.719298 844.350877 512.844351 819.559298 500.77193 788.965053 500.77193ZM253.502877 410.947368C253.502877 391.09614 282.426386 375.017544 318.122667 375.017544 353.818947 375.017544 382.760421 391.09614 382.760421 410.947368 382.760421 430.798596 353.818947 446.877193 318.122667 446.877193 282.426386 446.877193 253.502877 430.798596 253.502877 410.947368ZM665.617965 572.631579 376.849965 572.631579 308.888702 482.807018 733.561263 482.807018 665.617965 572.631579ZM705.859368 446.877193C670.181053 446.877193 641.239579 430.798596 641.239579 410.947368 641.239579 391.09614 670.181053 375.017544 705.859368 375.017544 741.555649 375.017544 770.497123 391.09614 770.497123 410.947368 770.497123 430.798596 741.555649 446.877193 705.859368 446.877193Z"  horiz-adv-x="1024" />

    
    <glyph glyph-name="shezhi" unicode="&#58935;" d="M1021.452956 452.170697c-2.94308 38.196064-10.044861 41.650984-47.793065 38.643924-41.778944-3.32696-77.095908 17.466542-91.491409 53.871165-14.779381 37.236364-4.09472 75.624367 28.471103 102.30403 21.945142 17.978382 24.632302 32.565823 4.73452 53.615245-29.942643 31.670103-61.164886 62.252546-93.730709 91.171509-25.272102 22.393002-37.044424 19.513902-58.413746-7.421681-26.103843-32.885723-67.882787-42.674664-105.82293-24.952202-35.572883 16.634802-52.271665 47.025305-49.520525 90.147829 1.85542 29.558763-6.845861 39.923524-36.340644 42.162824-23.032802 1.79144-46.065604 3.00706-67.690847 4.41462C481.141803 893.63274 459.964421 891.77732 438.978979 888.962199 409.612156 885.059419 403.278136 876.486098 405.837336 846.415495 409.740116 800.797751 390.738054 766.504467 352.861891 750.829366 316.137367 735.602124 278.133243 746.542705 249.278261 780.580069c-17.082662 20.153702-31.990003 23.096782-50.864105 5.246361C166.680072 756.011746 135.521809 725.301343 106.602847 692.67154 81.906564 664.840237 84.657704 655.371197 113.192787 631.570634 140.32031 608.921712 152.092631 579.938769 144.54299 544.877726 136.80141 509.240862 114.216467 486.33602 78.899504 478.082599 65.911563 475.075539 51.644021 476.994939 38.01628 477.122899 19.462078 477.314839 7.753737 468.869478 5.322497 450.699157-1.395404 400.282912-1.651324 349.802687 7.497817 299.578382c3.58288-19.833802 14.267541-27.511403 34.293283-26.295783C52.347801 273.922399 63.032462 276.417619 73.397223 275.393939c36.980444-3.64686 66.027366-28.215183 76.008247-62.828366 9.980881-34.421243-1.85542-69.546267-31.542143-93.410809-24.440362-19.641862-27.127523-33.269603-5.886161-55.854545 29.430803-31.286223 59.949266-61.740706 92.195189-90.083849 27.447423-24.120462 37.876164-21.305342 60.781006 7.933521 31.414183 40.179444 87.716589 45.553764 126.232552 12.604061 25.847923-22.137082 32.757763-50.096345 29.366823-82.598188-2.49522-23.992502 6.334021-37.812184 27.383443-38.260044 47.281225-0.9597 94.690409-1.15164 141.843674 1.66348 30.710403 1.85542 36.788504 12.796001 33.333583 43.762324-5.05442 44.913964 13.819681 80.166948 51.503905 96.161949 38.068104 16.122962 76.648047 5.182381 104.86323-29.750703 17.274602-21.369322 32.437863-24.504342 52.015745-5.822181 32.437863 30.902343 63.980006 62.956326 93.730709 96.417869 21.625242 24.312402 18.554202 37.428304-7.485661 57.070166-21.753202 16.378882-34.037363 38.132084-35.572883 65.195626-3.199 55.342705 41.906904 97.31359 97.95339 91.747329 28.599063-2.81512 42.610684 5.310341 43.250484 30.262543C1024.460016 363.750328 1024.843896 408.152452 1021.452956 452.170697zM513.387726 160.997688c-122.969572 1.34358-221.626742 101.40831-220.027241 223.162262 1.5995 120.154452 100.76851 218.939581 219.259481 218.427741 122.457732-0.51184 223.482162-101.21637 222.202562-221.690722C733.606908 258.823118 633.670138 159.654108 513.387726 160.997688z"  horiz-adv-x="1025" />

    
    <glyph glyph-name="che1-copy" unicode="&#58884;" d="M236.033 229.55c-52.684 0-95.551-42.855-95.551-95.528 0-52.691 42.867-95.547 95.551-95.547s95.551 42.856 95.551 95.547c0 52.673-42.867 95.528-95.551 95.528zM1001.548 167.675l-4.704 23.592c-2.572 13.876-9.010 17.693-17.489 21.774h-81.031c16.694-21.979 26.704-49.304 26.704-79.018 0-6.837-0.683-13.509-1.694-20.060h36.479c36.796-0.001 46.5 19.325 41.734 53.711zM793.913 229.55c-52.673 0-95.551-42.855-95.551-95.528 0-52.691 42.877-95.547 95.551-95.547 52.706 0 95.553 42.856 95.553 95.547 0 52.673-42.849 95.528-95.553 95.528zM162.911 242.652c16.915 11.408 36.604 18.935 57.876 21.412h31.97v-0.147c20.684-2.653 39.847-10.142 56.357-21.264h411.442c20.93 14.163 46.174 22.449 73.357 22.449 27.184 0 52.439-8.286 73.378-22.449h99.112l-10.939 60.957c-8.959 37.039-27.622 47.528-77.735 54.162-67.185 8.918-181.889 26.1-181.889 26.1-54.46 40.488-100.469 83.366-183.256 90.752l-5.388 10.815c-0.521 1.062-9.643 25.245-39.367 25.245l-186.659 0c-29.443 0-36.964-16.632-40.107-23.397-2.586-5.571-5.54-11.99-5.54-11.99-87.235-8.224-176.623-95.812-176.603-135.586l0.224-97.058h103.768zM878.445 316.588c3.122 0 34.654 0 50.52 0 2.817-4.552 4.571-9.999 6.205-16.673l6.449-35.917h-25.368c-19.213 0-27.969 5.102-36.153 19.694l-8.958 17.999c-5.46 11.143 3.101 14.897 7.306 14.897zM652.648 373.444l-358.509 0.23 46.609 73.4 132.633-0.061c83.786 0 120.714-27.979 179.266-73.569zM259.87 478.552c2.514 5.417 5.291 11.397 21.3 11.397h186.66c12.893 0 18.204-7.817 20.224-12.478l0.526-1.165 0.219-0.439c-48.617 0-157.010-0.019-230.093 0.165l1.164 2.52zM246.931 447.074l52.49-0.061-46.62-73.338h-75.78v-0.23h-60.712c17.347 25.366 75.674 73.63 130.622 73.63zM79.644 316.588h36.103c9.877 0 17.909-10.612 8.541-22.591-4.194-5.346-24.428-29.836-24.428-29.836h-20.337l0.122 52.426zM54.828 213.040c-5.204-7.427-9.358-15.508-9.623-30.611l-0.123-21.713c0-29.713 23.093-34.183 61.245-44.774-0.817 5.918-1.388 11.938-1.388 18.081 0 29.693 9.877 57.060 26.52 79.018l-76.632-0zM340.504 213.040c16.673-21.958 26.622-49.304 26.622-79.018 0-6.837-0.684-13.488-1.683-20.019l299.083-0.020c-1.011 6.551-1.694 13.203-1.694 20.039 0 29.714 10.010 57.039 26.684 79.018l-349.012 0z"  horiz-adv-x="1024" />

    
    <glyph glyph-name="dianhua1" unicode="&#59031;" d="M811.879881 223.504656c-9.338692 6.604418-110.843504 74.689073-123.166157 82.268702-6.77838 4.199649-14.94948 6.266727-23.766286 6.266727-10.694573 0-22.339798-3.053546-33.608445-9.048073-8.584516-4.544503-59.104119-54.321186-74.602092-63.216787-14.32117 10.640338-42.428322 33.394574-83.83743 75.152631-41.414225 41.768289-63.956637 70.12922-74.467015 84.524069 8.837272 15.627932 48.579415 76.230172 53.094242 84.86176 11.166317 21.3564 12.105712 43.146683 2.560312 58.255799-7.126304 11.387351-74.114998 113.859187-81.513502 124.210953-8.196683 11.438517-22.677489 17.625426-38.20002 17.625426-11.746532 0-24.088628-3.539616-34.733059-11.025101-1.124614-0.768503-110.429065-83.864036-109.069091-127.072117 2.665713-85.658915 66.320475-191.939497 189.125405-315.824015 122.792651-123.873262 228.155327-188.099029 313.51032-190.854792l0.674359 0 0.37453 0c42.315758 0 123.68088 109.007693 124.435057 110.095467C838.551334 178.316477 830.585919 210.278423 811.879881 223.504656L811.879881 223.504656zM811.879881 223.504656"  horiz-adv-x="1024" />

    
    <glyph glyph-name="fenxiang3svg" unicode="&#58900;" d="M1022.00064 528.28032 514.80064 896l0-170.09536C219.3088 621.46176 7.60064 339.65696 7.60064 8.39936c0-33.14432 2.1248-65.79328 6.23616-97.82016C52.07168 152.83328 261.7984 338.08 514.80064 338.08l0-177.52064L1022.00064 528.28032z"  horiz-adv-x="1024" />

    
    <glyph glyph-name="xiaoxi" unicode="&#58903;" d="M510.971066 48.064948c-28.703739 0-74.801636 0-74.801636 0L230.478743-64.139553 230.478743 141.549086C127.943462 213.529467 62.172503 316.831204 62.172503 440.781214c0 216.874399 200.940498 392.697847 448.798563 392.697847 247.862157 0 448.801632-175.824471 448.801632-392.697847C959.791118 223.869976 758.850619 48.064948 510.971066 48.064948L510.971066 48.064948 510.971066 48.064948zM510.971066 777.395742c-216.872353 0-392.733663-150.708444-392.733663-336.614527 0-114.073058 67.078745-219.61993 168.343079-280.493346L286.580482 35.611312l149.568481 68.555375c0 0 42.057885 0 74.803683 0 216.873376 0 392.735709 150.709467 392.735709 336.614527C903.707798 626.704694 727.845465 777.395742 510.971066 777.395742L510.971066 777.395742 510.971066 777.395742zM735.398488 384.679475c-31.005155 0-56.119135 25.116027-56.119135 56.121182s25.113981 56.121182 56.119135 56.121182c30.971385 0 56.087413-25.116027 56.087413-56.121182S766.369873 384.679475 735.398488 384.679475L735.398488 384.679475 735.398488 384.679475zM510.971066 384.679475c-31.005155 0-56.120159 25.116027-56.120159 56.121182s25.113981 56.121182 56.120159 56.121182c31.007201 0 56.123228-25.116027 56.123228-56.121182S541.978267 384.679475 510.971066 384.679475L510.971066 384.679475 510.971066 384.679475zM286.56411 384.679475c-30.968315 0-56.084343 25.116027-56.084343 56.101739 0 30.987758 25.116027 56.122205 56.084343 56.122205 31.005155 0 56.120159-25.116027 56.120159-56.122205S317.549821 384.679475 286.56411 384.679475L286.56411 384.679475 286.56411 384.679475z"  horiz-adv-x="1024" />

    
    <glyph glyph-name="xingyeyinhang" unicode="&#59032;" d="M1023.570723 387.365654c0 131.200134-177.792289 237.514485-397.057131 237.514485-175.487803 0-324.425927-68.202335-376.763946-162.678056v0.104377c-4.844332-8.786107-7.564279-18.327414-7.56428-28.328185 0-23.546276 14.851243-44.517913 38.056758-58.20975l201.276143-116.182093c10.409071-5.684466 22.832008-9.05012 36.224016-9.05012 13.408381 0 25.857924 3.358491 36.265971 8.979512l190.922331 110.332875c12.866029 7.439436 21.054525 19.097964 21.054525 32.102138 0 12.616342-7.758708 23.87885-19.916608 31.387871l-70.936609 41.040719L517.742283 383.528256l-119.026884 68.813248c46.00887 41.422412 131.644249 69.27783 229.811036 69.27783 146.731876 0 265.633916-62.275345 265.633916-139.180899-3.123131-118.993115-177.653119-211.075323-389.699559-205.599612-212.171284 5.586229-381.594975 106.71651-378.457518 225.696322h-0.055259c1.526773 156.987451 207.28602 282.283108 459.568861 279.833313 22.511713-0.25685 44.4954-1.451048 66.037018-3.603061-51.783387 19.077497-116.4195 30.40959-186.78715 30.40959-56.112995 0-108.756983-7.28594-154.031119-19.874653C128.180869 639.190053 0.353552 522.855488 0.353552 387.365654c0-181.429119 229.048673-328.541665 511.656169-328.541665 282.581913 0 511.629563 147.112546 511.629564 328.541665h-0.068562z"  horiz-adv-x="1024" />

    
    <glyph glyph-name="huaxiayinhang" unicode="&#58905;" d="M931.927 125.972s46.464 55.762 49.096 79.765c0 0-1.265 33.152-27.822-18.632 0 0 6.62 31.862-12.022 15.872 0 0-90.368-104.929-128.87-110.249 0 0-285.697-168.77-415.97 171.397 0 0-55.808 160.85 75.73 281.78 131.59 120.995 260.5 108.917 378.742 21.227 0 0 59.812 67.84 85.084 54.472 0 0 22.595 13.373 11.935 33.218l-33.198 42.47s-130.222-21.227-127.59 51.84c0 0 9.24 54.472-85.06 33.24 0 0-22.548 21.227-21.247 33.229 0 0 6.64 31.856-95.683 14.612 0 0-151.48-18.606-317.634-208.614 0 0-167.399-136.791-167.399 4.065 0 0-91.714-93.087-42.527-167.465 0 0 55.855-78.392 162.156-14.618 0 0-33.188-257.786 136.837-392.084 0 0 178.079-164.705 382.75-106.301 0 0 171.388 35.906 236.504 208.757 0 0.005-30.536-30.602-43.812-27.98zM549.202 236.268h283.013V451.594l-283.013-1.382v-213.944z"  horiz-adv-x="1024" />

    
    <glyph glyph-name="gongshangyinhang" unicode="&#59026;" d="M512.1024-128C229.376-128 0.1024 101.2736 0.1024 384 0.1024 666.8288 229.376 896 512.1024 896c282.8288 0 512-229.1712 512-512 0-282.7264-229.1712-512-512-512z m0 958.1568C265.8304 830.1568 66.048 630.3744 66.048 384c0-246.272 199.7824-446.0544 446.0544-446.0544 246.3744 0 446.1568 199.7824 446.1568 446.0544 0 246.3744-199.68 446.1568-446.1568 446.1568z m17.2032-662.8352h197.632v94.3104h-197.632V484.2496h197.632v77.1072h-197.632v81.5104h278.4256V411.648h-201.728v-67.584h201.728v-249.344H529.3056v72.6016zM216.576 344.064h201.6256v67.584H216.576V642.8672h278.528v-81.5104H297.2672v-77.1072h197.7344v-222.6176H297.2672v-94.3104h197.7344v-72.704h-278.528V344.064z"  horiz-adv-x="1024" />

    
    <glyph glyph-name="yuechi" unicode="&#58901;" d="M617.2 327.6c-91.4 0-165.8 74.4-165.8 165.8s74.4 165.8 165.8 165.8 165.8-74.4 165.8-165.8-74.4-165.8-165.8-165.8z m0 267.6c-56.2 0-101.8-45.6-101.8-101.8 0-56.2 45.6-101.8 101.8-101.8s101.8 45.6 101.8 101.8c0 56-45.6 101.8-101.8 101.8zM167.4-96c-23.2 0-46.6 8.8-64.4 26.6L54-20.2c-17.2 17.2-26.6 40-26.6 64.4 0 24.4 9.4 47.2 26.6 64.4l229.8 229.8c-22.4 48.4-34.2 101.6-34.2 155.2 0 202.8 165 367.8 367.8 367.8s367.8-165 367.8-367.8-165.2-368-368-368c-54 0-107.4 12-156 34.6l-49-49 18.4-18.4c12.8-12.8 19.8-29.8 19.8-47.8 0-18.2-7-35.2-19.8-47.8l-31.4-31.4c-26.4-26.4-69.4-26.4-95.8 0l-18.4 18.4-53.4-53.4C214-87 190.8-96 167.4-96zM617.2 797.2c-167.6 0-303.8-136.2-303.8-303.8 0-51 13-101.6 37.4-146 6.8-12.4 4.6-28-5.4-38l-246-246c-5-5-7.8-11.8-7.8-19s2.8-14 7.8-19L148.4-24c10.6-10.6 27.6-10.6 38.2 0l76 76c6 6 14.2 9.4 22.6 9.4s16.6-3.4 22.6-9.4l41.2-41.2c1.4-1.4 3.8-1.4 5.2 0l31.4 31.4c0.8 0.8 1 2 1 2.6 0 0.8-0.2 1.8-1 2.6l-41.2 41.2c-12.4 12.4-12.4 32.8 0 45.2l88 88c10 10 25.6 12.2 38.2 5.4 44.6-24.6 95.4-37.8 146.6-37.8 167.6 0 303.8 136.2 303.8 303.8 0 167.6-136.2 304-303.8 304z"  horiz-adv-x="1024" />

    
    <glyph glyph-name="nongyeyinhang" unicode="&#59023;" d="M481.19 569.335h48.915c8.307 0 24.919-1.88 29.534 7.523 1.846 2.822 3.692 8.465 3.692 11.286 1.846 6.583 0 18.81 0 25.394v33.857 136.37c0 7.523 0.923 64.893-1.846 64.893h-95.984c-3.692 0-1.846-28.215-1.846-32.917v-135.428c0-31.036-2.77-63.953 0-94.989 1.846-9.405 9.23-15.049 17.535-15.989zM622.397 839.253V697.24c0-43.262 5.537-91.227-0.923-134.488-3.692-27.274-68.296-9.405-86.755-15.048-19.381-6.582-11.075-44.202-11.075-59.25v-91.227c7.383 16.929 31.38 11.286 45.223 11.286 24.919 0 54.452-4.702 78.449 0 10.152 2.822 14.766 11.286 14.766 20.69-3.692 2.822 0 31.036 0 36.679v56.43 202.202c123.672-58.31 204.889-189.036 204.889-328.227 0-176.81-132.901-332.93-305.488-356.441V148v53.607V227c0 3.762-0.923 9.405 0 13.167 2.77 7.525-0.923 3.762 5.537 6.583 11.075 3.762 107.982-12.226 95.061 19.75-4.615 8.464 0 34.797 0 45.143v94.048c0.923-24.453-28.61-18.81-44.3-18.81-24.918 0-51.684 2.822-75.68 0-24.918 0-18.458-32.916-18.458-48.904v-91.227c-4.615 0-11.998-0.94-15.69 0.94-5.536 1.881-4.614 0.94-4.614 9.406V281.55v47.024c0 13.167 2.769 30.095-0.923 43.262-3.692 21.63-37.84 15.048-52.606 15.048-23.074 0-50.762-4.702-73.834 0-8.306 2.82-11.998 9.405-11.075 17.869v-106.275c0-12.226-2.77-25.393 0-36.678 3.692-20.69 31.38-15.048 46.146-15.048h46.146c10.152 0 6.46-9.405 6.46-17.869v-189.036c-172.587 23.511-305.488 179.63-305.488 356.44 0 139.192 82.14 269.918 206.735 328.228V494.1c0-21.631-0.923-43.263-0.923-65.834 1.846-12.226 7.383-17.869 19.381-19.75h58.144c16.613 0 52.607 8.465 61.837-11.286V500.681c0 22.572 4.615 46.084-23.074 47.965-14.766 0.94-31.38 0-46.146 0-30.456 0-29.533 14.107-29.533 42.322V839.255C197.853 786.586 52.954 584.383 67.72 367.133 85.256 108.5 320.6-87.117 573.482-52.32c227.962 31.976 397.78 243.583 384.86 476.822-11.076 195.62-149.515 366.786-335.945 414.75z"  horiz-adv-x="1024" />

    
    <glyph glyph-name="yinhang" unicode="&#59051;" d="M905.216 447.488c0 214.528-173.568 388.096-388.096 388.096S129.024 662.016 129.024 447.488c0-197.12 146.944-359.936 337.408-384.512l50.688-76.8 50.688 76.8c190.464 24.576 337.408 187.392 337.408 384.512zM517.632 238.08c-1.024 1.536 0.512-1.024 0 0zM464.384 304.64H354.816c-10.24 0.512-17.92 5.12-23.552 12.8-5.632 7.68-8.704 16.384-9.728 25.6 1.024 9.216 4.608 17.408 9.728 23.04 5.632 6.144 13.312 9.216 23.552 10.24h109.568v35.84l-109.568 0.512c-10.24 0.512-17.92 4.096-23.552 10.752-5.632 6.656-8.704 14.336-9.728 24.576 1.024 9.216 4.608 17.408 9.728 23.04 5.632 6.144 13.312 9.216 23.552 10.24h81.408L360.448 615.424c-3.584 4.608-7.168 10.24-10.752 17.408-3.584 7.168-5.12 14.848-4.608 23.04 2.048 10.752 5.632 18.944 11.264 25.6 5.632 6.656 16.384 10.752 31.744 12.8 9.216-0.512 17.408-4.096 24.576-9.216 7.168-5.632 12.8-11.264 17.408-17.92l86.016-157.696 94.72 158.72c4.608 6.656 10.24 12.288 17.408 16.896 7.168 5.12 15.36 8.192 24.576 9.216 5.632-0.512 10.752-1.024 15.36-2.048 4.608-1.024 8.704-3.072 12.288-5.632 3.584-2.56 6.656-6.656 9.216-11.264 2.56-5.12 4.096-11.264 5.632-19.456 0-10.752-3.584-21.504-11.264-31.232l-88.064-142.848h83.456c9.728-0.512 17.408-4.096 23.04-10.24s8.704-13.824 9.728-23.04c-0.512-9.728-4.096-17.92-9.728-25.088-5.632-6.656-13.824-10.752-23.552-11.264l-108.032-0.512v-34.816h109.056c9.728-0.512 17.408-4.608 23.04-11.264 5.632-6.656 8.704-14.848 9.728-24.576-0.512-9.728-4.096-17.92-9.728-24.576-5.632-6.656-13.312-10.24-23.04-11.264l-109.056 0.512V245.76c-1.536-32.256-18.944-48.128-52.736-48.128-16.384 0-29.696 4.096-38.912 11.776-9.216 8.192-14.336 19.968-14.848 36.352v58.88z"  horiz-adv-x="1024" />

    
    <glyph glyph-name="jiansheyinhang" unicode="&#58911;" d="M924.69 367.195H754.812s-12.207 0-17.293-2.073c-3.051-1.037-13.224-9.33-13.224-9.33L514.75 142.26c-4.07-3.11-9.155-3.11-13.225 0l-222.77 227.01c-3.052 3.11-3.052 9.329 0 12.439l223.789 227.009a7.544 7.544 0 0 0 12.207 0l196.322-200.06s8.137-9.329 17.293-12.438c9.154-2.073 22.378 9.33 22.378 9.33l90.533 94.327L576.8 767.311C520.852 824.323 459.819 819.14 435.406 816.03c-212.6-36.28-366.2-221.827-366.2-442.616 0-248.777 202.428-447.798 439.44-447.798 232.943 0 428.25 190.73 439.439 431.213 0 3.11 1.017 5.183-5.086 9.33-6.104 4.146-18.31 1.036-18.31 1.036zM646.986 774.567l231.927-234.264 64.084 63.231s6.103 10.366 8.137 19.695c1.018 5.183-9.154 13.474-9.154 13.474l-141.393 145.12C667.332 917.613 518.818 852.31 518.818 852.31s62.05-1.037 128.17-77.743z"  horiz-adv-x="1024" />

    
    <glyph glyph-name="minshengyinhang" unicode="&#59009;" d="M509.5168 592.9344l101.5936-54.7328-96.9088-59.4048-101.5808 51.5968 96.896 62.5408z m4.672 65.6384l226.6368-126.6304-101.6064-62.5024s251.648-28.1344 343.8208-145.3824c0 0 138.8288-198.848-184.704-300.48 0 0-626.4192-152.8704-798.3616 195.7248l146.944 4.6976s114.0736-215.104 354.7904-188.5312c0 0 423.5136 15.0016 351.6416 247.9488 0 0-85.952 156.288-375.104 153.1648l-178.176 100.0576 214.1184 121.9328zM406.3616 236.5056l101.5936 56.2688 103.1552-56.2688-106.2784-56.2688-98.4704 56.2688z m120.9472 538.9056c158.4128-10.9568 419.84-49.2672 496.6912-235.392H867.0464C811.904 782.3488 250.8416 817.1136 166.9376 576.2432c-43.0976-110.4384 117.5168-237.0688 233.152-235.5072 24.0512 0.3328 62.528 13.5168 99.0336 5.12l204.16-108.5056-204.3904-119.7952c-74.4192 42.2272-148.8768 84.5056-223.3216 126.72l102.6048 60.352C210.9312 322.176-27.8528 413.9008 3.968 570.1888 43.968 766.5536 368.8832 786.3424 527.3088 775.4112z"  horiz-adv-x="1024" />

    
    <glyph glyph-name="104100000004" unicode="&#58918;" d="M1020.944 406.422c-6.566 181.308-118.385 304.877-118.385 304.877-172.912 203.183-394.668 184.227-394.668 184.227-236.821 7.59-382.457-172.925-382.457-172.925-99.633-119.626-110.884-229.858-110.884-229.858-44.185-185.148 47.909-344.71 47.909-344.71 68.594-125.348 140.951-183.356 258.389-238.331 117.476-55.18 296.058-47.589 406.942 8.435 110.859 56.101 178.518 117.822 240.546 234.594 61.964 116.887 52.607 253.691 52.607 253.691M459.956-14.382s-186.070 10.419-288.494 190.934c0 0-88.369 127.294-51.724 285.908 36.684 158.602 122.186 222.178 139.133 238.319 16.921 16.115 126.398 82.008 201.084 80.805v-189.027h-78.936s-107.134-6.656-110.897-126.321v-174.755s2.829-107.377 113.713-119.69h76.107v-186.172M396.021 282.892s-18.764-4.736-21.58 17.075v167.178s2.803 18.035 16.896 18.035h232.098s19.776 3.866 21.619-18.035v-162.403s4.723-25.651-14.093-21.862h-234.939M848.070 160.411c-75.199-115.863-218.044-169.098-284.743-174.793v186.172h88.318s94.040 18.969 99.62 117.783v198.486s-15.104 99.672-119.306 104.497h-68.632v188.976s117.463-9.459 212.361-97.841c94.91-88.305 119.319-176.624 129.687-224.136 10.317-47.5 17.856-183.267-57.304-299.143z"  horiz-adv-x="1024" />

    
    <glyph glyph-name="yuechipipei" unicode="&#58899;" d="M995.968 854.08a95.424 95.424 0 0 1-67.776 28.032h-255.616a95.68 95.68 0 0 1-95.808-95.872v-30.72h-497.92L0 658.496l78.784-97.024h497.92v-30.784a95.68 95.68 0 0 1 95.808-95.808h14.08l-51.52-65.984a158.208 158.208 0 0 1-90.24 28.096h-383.36c-42.624 0-82.752-16.64-112.896-46.72a158.72 158.72 0 0 1-46.784-112.96v-191.68c0-42.688 16.64-82.816 46.784-112.96a158.464 158.464 0 0 1 112.896-46.784h383.36c42.624 0 82.752 16.64 112.96 46.72a158.72 158.72 0 0 1 46.784 113.024v191.68c0 30.592-8.896 59.712-24.896 84.928l88 112.64h160.512A95.68 95.68 0 0 1 1024 530.688V786.24c0 25.664-9.984 49.728-28.032 67.84zM572.544 627.776H110.336l-24.96 30.72 24.96 30.72h462.272v-61.44z m68.096-390.464v-191.68c0-25.6-9.92-49.664-28.032-67.776a95.104 95.104 0 0 0-67.776-28.096h-383.36c-25.536 0-49.6 9.984-67.776 28.096a94.976 94.976 0 0 0-28.032 67.776v191.68c0 25.536 9.92 49.6 28.032 67.776a95.424 95.424 0 0 0 67.776 28.032h383.36c18.24 0 35.712-5.312 50.752-14.784l-41.024-52.48a81.728 81.728 0 0 1-25.728 4.608c-44.672 0-81.024-36.352-81.024-81.088v-95.872a81.088 81.088 0 0 1 162.112 0v95.872c0 12.032-2.816 23.424-7.616 33.728l33.536 42.944c2.816-9.216 4.8-18.816 4.8-28.736z m-97.024-47.936v-95.872a14.72 14.72 0 0 0-29.504 0v95.872a14.72 14.72 0 0 0 29.504 0z m416.512 341.312a31.936 31.936 0 0 0-31.936-31.936h-110.592l24.512 31.36c2.048-0.128 4.032-0.576 6.208-0.576 44.672 0 81.024 36.288 81.024 81.024V706.432a81.088 81.088 0 0 1-162.112 0V610.56c0-18.88 6.72-36.096 17.664-49.856l-48.384-61.952h-64a31.936 31.936 0 0 0-31.936 31.936V786.24a31.936 31.936 0 0 0 31.936 32h255.616a32 32 0 0 0 31.936-32v-255.552zM833.472 610.56V706.432a14.72 14.72 0 0 0 29.504 0V610.56a14.72 14.72 0 0 0-29.504 0z"  horiz-adv-x="1024" />

    
    <glyph glyph-name="qiandinghetong" unicode="&#58923;" d="M718.797 338.709c-115.363 0-207.223-91.862-207.223-207.223s91.862-207.223 207.223-207.223 207.223 91.862 207.223 207.223-94.852 207.223-207.223 207.223zM718.797-23.61c-83.744 0-155.098 68.791-155.098 155.098s68.791 155.098 155.098 155.098c83.744 0 155.098-68.791 155.098-155.098s-71.355-155.098-155.098-155.098zM838.859 172.932c-2.99 8.973-8.973 11.963-17.945 14.954l-56.827 8.973-26.917 50.844c-5.983 14.954-29.908 14.954-38.881 0l-26.917-50.844-56.827-8.973c-8.973 0-14.954-5.983-17.945-14.954s0-14.954 5.983-20.937l41.871-38.881-5.983-59.817c0-8.973 2.99-14.954 8.973-20.937s14.954-5.983 23.926-2.99l50.844 26.917 50.844-26.917c2.99-2.99 5.983-2.99 8.973-2.99 5.983 0 8.973 2.99 11.963 2.99 5.983 5.983 8.973 11.963 8.973 20.937l-8.973 56.827 41.871 38.881c2.99 8.973 2.99 17.945 2.99 26.917zM752.124 131.059c-5.983-5.983-5.983-11.963-5.983-17.945l2.99-26.917-20.937 14.954c-2.99 2.99-5.983 2.99-8.973 2.99s-5.983 0-8.973-2.99l-23.926-11.963 2.99 23.926c0 5.983 0 14.954-5.983 17.945l-17.945 17.945 26.917 2.99c5.983 0 11.963 5.983 14.954 11.963l11.963 23.926 11.963-23.926c2.99-5.983 8.973-8.973 14.954-11.963l26.917-2.99-20.937-17.945zM439.364 131.487c0 21.79 2.564 43.152 6.834 63.236h-200.389c-18.801 0-34.181 15.381-34.181 34.181s15.381 34.181 34.181 34.181h225.597c14.954 28.627 35.037 54.262 58.964 76.053h-284.558c-18.801 0-34.181 15.381-34.181 34.181s15.381 34.181 34.181 34.181h425.129c15.381 2.564 31.19 3.845 47.426 3.845 54.262 0 105.108-15.808 148.26-43.152v387.53c0 1.281 0 2.564-0.427 4.272v0.854c0 1.281-0.427 2.564-0.427 3.845v0.854c0 1.281-0.427 2.564-0.854 3.845v0.854c-0.427 2.564-1.281 5.553-2.135 8.118 0 0.427 0 0.427-0.427 0.854l-1.281 3.845s0 0.427-0.427 0.427c-0.427 1.281-0.854 2.135-1.281 3.419 0 0 0 0.427-0.427 0.427-0.427 1.281-1.281 2.564-1.708 3.419 0 0.427-0.427 0.427-0.427 0.854-0.427 1.281-1.281 2.564-1.708 3.419-0.854 1.281-1.281 2.564-2.135 3.419 0 0.427-0.427 0.427-0.427 0.854-0.854 1.281-1.281 2.135-2.135 3.419l-0.427 0.427c-0.854 0.854-1.281 2.135-2.135 2.99l-0.427 0.427c-0.854 0.854-1.708 2.135-2.564 2.99 0 0.427-0.427 0.427-0.427 0.854-0.854 0.854-1.708 2.135-2.564 2.99-0.854 0.854-1.708 2.135-2.564 2.99l-0.427 0.427c-0.854 0.854-1.708 1.708-2.99 2.564l-3.419 3.419c-0.854 0.854-2.135 1.708-2.99 2.564-0.427 0-0.427 0.427-0.854 0.427-1.281 0.854-2.135 1.708-3.419 2.135-5.127 3.419-10.682 6.407-16.236 8.973-0.427 0-0.854 0.427-1.281 0.427-0.854 0.427-2.135 0.854-2.99 1.281-0.427 0.427-1.281 0.427-1.708 0.427-0.854 0.427-1.708 0.427-2.99 0.854-0.854 0-1.281 0.427-2.135 0.427-0.854 0.427-1.708 0.427-2.99 0.854-0.854 0-1.281 0.427-2.135 0.427s-2.135 0.427-2.99 0.427c-0.854 0-1.281 0.427-2.135 0.427s-2.135 0.427-2.99 0.427c-0.854 0-1.281 0-2.135 0.427-1.281 0-2.135 0-3.419 0.427h-587.49c-14.527 0-28.198-3.419-40.59-9.399-2.564-1.281-5.553-2.99-8.118-4.272l-3.845-2.564c-25.209-17.090-41.444-45.716-41.444-77.762v-676.364c0-1.281 0-2.564 0.427-4.272v-0.854c0-1.281 0.427-2.564 0.427-3.845v-0.854c0-1.281 0.427-2.564 0.854-3.845v-0.854c0.427-2.564 1.281-5.553 2.135-8.118 0-0.427 0-0.427 0.427-0.854l1.281-3.845s0-0.427 0.427-0.427c0.427-1.281 0.854-2.135 1.281-3.419 0 0 0-0.427 0.427-0.427 0.427-1.281 1.281-2.564 1.708-3.419 0-0.427 0.427-0.427 0.427-0.854 0.427-1.281 1.281-2.564 1.708-3.419 0.854-1.281 1.281-2.135 2.135-3.419 0-0.427 0.427-0.427 0.427-0.854 0.854-1.281 1.281-2.135 2.135-3.419l0.427-0.427c0.854-0.854 1.281-2.135 2.135-2.99l0.427-0.427c0.854-0.854 1.708-2.135 2.564-2.99 0-0.427 0.427-0.427 0.427-0.854 0.854-0.854 1.708-2.135 2.564-2.99 0.854-0.854 1.708-2.135 2.99-2.99l0.427-0.427c0.854-0.854 1.708-1.708 2.99-2.564l3.419-3.419c0.854-0.854 2.135-1.708 2.99-2.564 0.427 0 0.427-0.427 0.854-0.427 1.281-0.854 2.135-1.708 3.419-2.135 5.127-3.419 10.682-6.407 16.236-8.973 0.427 0 0.854-0.427 1.281-0.427 0.854-0.427 2.135-0.854 2.99-1.281 0.427-0.427 1.281-0.427 1.708-0.427 0.854-0.427 1.708-0.427 2.99-0.854 0.854 0 1.281-0.427 2.135-0.427 0.854-0.427 1.708-0.427 2.99-0.854 0.854 0 1.281-0.427 2.135-0.427s2.135-0.427 2.99-0.427c0.854 0 1.281-0.427 2.135-0.427s2.135-0.427 2.99-0.427c0.854 0 1.281 0 2.135-0.427 1.281 0 2.135 0 3.419-0.427h295.239c-26.063 41.444-41.444 91.862-41.444 146.125zM246.24 693.341h467.002c18.801 0 34.181-15.381 34.181-34.181s-15.381-34.181-34.181-34.181h-467.002c-18.801 0-34.181 15.381-34.181 34.181s15.381 34.181 34.181 34.181zM246.24 547.643h467.002c18.801 0 34.181-15.381 34.181-34.181s-15.381-34.181-34.181-34.181h-467.002c-18.801 0-34.181 15.381-34.181 34.181s15.381 34.181 34.181 34.181z"  horiz-adv-x="1024" />

    
    <glyph glyph-name="pinganyinhang" unicode="&#58919;" d="M1232.896 76.169846c0-54.508308-35.288615-98.934154-79.084308-98.934154H217.718154c-43.795692 0-79.084308 44.110769-79.084308 98.934154V613.691077c0 54.508308 35.288615 98.619077 79.084308 98.619077h936.093538c43.795692 0 79.084308-44.110769 79.084308-98.619077v-537.521231zM890.092308 393.137231h-75.303385v93.577846h69.316923c1.890462 0 3.465846 1.890462 3.465846 4.411077v17.959384c0 2.520615-1.575385 4.411077-3.465846 4.411077h-168.566154c-1.890462 0-3.465846-1.890462-3.465846-4.411077v-17.959384c0-2.520615 1.575385-4.411077 3.465846-4.411077h69.316923v-93.577846h-75.303384c-1.890462 0-3.465846-1.890462-3.465846-4.411077v-19.219692c0-2.205538 1.575385-4.411077 3.465846-4.411077h75.303384V328.861538c0-2.520615 1.575385-4.411077 3.465847-4.411076h23.000615c1.890462 0 3.465846 1.890462 3.465846 4.411076v36.233847h75.303385c1.890462 0 3.465846 1.890462 3.465846 4.411077V388.726154c0 2.520615-1.575385 4.411077-3.465846 4.411077z m-140.209231 14.808615h23.315692c1.890462 0 2.835692 1.890462 1.890462 3.780923l-23.000616 56.083693c-0.945231 2.205538-3.150769 4.096-5.986461 4.096h-23.315692c-1.890462 0-2.835692-1.890462-1.890462-4.096l23.000615-56.083693c1.260308-1.890462 3.465846-3.780923 5.986462-3.780923z m290.500923 6.931692c0-7.561846-0.945231-13.548308-8.822154-18.589538-6.301538-3.780923-16.384-9.767385-25.836308-15.123692-9.137231 5.356308-19.534769 11.342769-25.52123 15.123692-7.876923 5.041231-8.822154 11.027692-8.822154 18.589538v8.192h69.001846v-8.192z m57.028923 35.288616h-29.617231v15.753846c0 2.520615-1.575385 4.411077-3.465846 4.411077h-20.164923c-1.890462 0-3.465846-1.890462-3.465846-4.411077v-15.753846h-69.001846v15.753846c0 2.520615-1.575385 4.411077-3.465846 4.411077h-20.164923c-1.890462 0-3.465846-1.890462-3.465847-4.411077v-15.753846h-29.61723c-1.890462 0-3.465846-1.890462-3.465847-4.411077v-18.589539c0-2.205538 1.575385-4.411077 3.465847-4.411076h29.61723v-11.657847c0-13.548308 5.041231-26.151385 18.274462-34.343384 5.041231-3.150769 11.342769-6.931692 17.959385-11.027693-11.657846-5.986462-22.370462-8.822154-33.083077-8.822153h-28.041847c-1.890462 0-3.465846-1.890462-3.465846-4.411077v-18.274462c0-2.520615 1.575385-4.411077 3.465846-4.411077h27.72677c11.027692 0 24.576 2.835692 35.918769 8.192 4.726154 2.205538 13.548308 6.931692 23.315692 12.603077 10.082462-5.671385 18.904615-10.397538 23.630769-12.603077 11.342769-5.356308 24.891077-8.192 35.91877-8.192h27.411692c1.890462 0 3.465846 2.205538 3.465846 4.411077v18.274462c0 2.520615-1.575385 4.411077-3.465846 4.411077h-28.041846c-11.027692 0-21.425231 2.835692-33.398154 8.822153 6.616615 4.096 12.918154 7.876923 17.959385 11.027693 13.233231 8.192 18.274462 20.795077 18.274461 34.343384v11.657847h29.617231c1.890462 0 3.465846 1.890462 3.465846 4.411076v18.589539c-0.945231 2.520615-2.205538 4.411077-4.096 4.411077zM657.880615 357.218462h-135.483077v135.483076h135.483077v-135.483076z m6.616616 160.059076h-149.031385c-11.027692 0-20.164923-11.027692-20.164923-25.206153v-136.428308c0-13.863385 9.137231-25.206154 20.164923-25.206154h149.031385c11.027692 0 20.164923 11.342769 20.164923 25.206154v136.428308c0 14.178462-9.137231 25.206154-20.164923 25.206153z m188.731077-45.056c-2.835692 0-5.041231-1.890462-5.986462-4.096l-23.000615-56.083692c-0.945231-2.205538 0.315077-3.780923 2.205538-3.780923h23.315693c2.835692 0 5.041231 1.890462 5.671384 3.780923l23.000616 56.083692c0.945231 2.205538-0.315077 4.096-1.890462 4.096h-23.315692z m62.38523-3.150769h16.068924c1.890462 0 3.465846 1.890462 3.465846 4.411077v12.603077h141.469538v-12.603077c0-2.205538 1.575385-4.411077 3.465846-4.411077h16.068923c1.890462 0 3.465846 1.890462 3.465847 4.411077v14.493539c0 12.288-7.876923 22.055385-17.644308 22.055384H1020.849231v10.397539c0 2.520615-1.575385 4.411077-3.465846 4.411077h-23.000616c-1.890462 0-3.465846-1.890462-3.465846-4.411077v-10.397539h-60.809846c-9.767385 0-17.644308-9.767385-17.644308-22.055384v-14.493539c-0.315077-2.205538 1.260308-4.411077 3.150769-4.411077z m-476.08123-76.563692h-52.30277v76.563692h52.30277v-76.563692z m-83.495385 0H303.734154v76.563692H356.036923v-76.563692z m91.687385 104.605538h-60.49477v22.370462c0 2.520615-1.575385 4.411077-3.465846 4.411077H359.187692c-1.890462 0-3.465846-1.890462-3.465846-4.411077v-22.370462H295.227077c-11.027692 0-20.164923-11.342769-20.164923-25.206153v-82.235077c0-13.863385 9.137231-25.206154 20.164923-25.206154H356.036923v-35.288616c0-2.520615 1.575385-4.411077 3.465846-4.411077h24.576c1.890462 0 3.465846 1.890462 3.465846 4.411077v35.288616h60.49477c11.027692 0 20.164923 11.342769 20.164923 25.206154v82.235077c-0.315077 13.863385-9.452308 25.206154-20.48 25.206153z m196.292923-91.372307h-20.48v-9.767385h-20.164923v22.370462h34.973538V439.138462h-34.973538v15.123692h40.644923v23.000615h-107.756308v-23.000615h40.644923v-15.123692h-34.658461v-21.110154h34.658461v-22.370462h-40.644923v-22.685538h107.756308v32.768zM1196.977231 247.256615c0-29.617231-19.219692-53.878154-43.165539-53.878153H217.718154c-23.945846 0-43.165538 24.260923-43.165539 53.878153V613.376c0 29.617231 19.534769 53.878154 43.165539 53.878154h936.093538c23.945846 0 43.165538-24.260923 43.165539-53.878154v-366.119385zM1153.811692 694.035692H217.718154c-35.918769 0-64.905846-36.233846-64.905846-80.659692v-537.521231c0-44.425846 28.987077-80.659692 64.905846-80.659692h936.093538c35.603692 0 64.905846 36.233846 64.905846 80.659692V613.376c0 44.740923-28.987077 80.659692-64.905846 80.659692zM949.326769 62.621538c0-2.205538 1.575385-4.096 3.150769-4.096s3.150769 1.890462 3.15077 4.096v21.425231c0 1.890462 1.260308 3.150769 2.520615 3.150769h40.96c1.260308 0 2.520615-1.260308 2.520615-3.150769v-19.219692c0-2.205538 1.575385-4.096 3.15077-4.096 1.890462 0 3.150769 1.890462 3.150769 4.096v23.000615c0 3.780923-2.520615 6.931692-5.671385 6.931693h-47.891692c-3.150769 0-5.356308-3.150769-5.356308-6.931693v-25.206154h0.315077z m63.960616-10.397538c-10.397538 7.246769-19.534769 11.972923-27.096616 14.178462-1.890462 0.630154-3.465846-0.315077-4.096-2.205539-0.630154-2.520615 0.315077-3.780923 2.205539-4.726154 9.452308-3.150769 18.274462-8.192 26.781538-14.178461l2.520616-0.630154 1.890461 2.205538v3.15077l-2.205538 2.205538z m1.575384 49.782154c-11.657846 3.465846-19.849846 10.082462-24.576 19.849846 0.315077 0.945231 0.630154 2.835692 0.945231 4.726154h14.493538c2.205538 0 1.575385-2.835692-2.835692-8.822154-1.260308-2.205538-0.945231-4.096 0.315077-5.671385 1.575385-1.260308 3.150769-0.945231 4.411077 0.945231 2.835692 4.411077 5.041231 8.822154 6.301538 13.548308 0.945231 4.726154-0.315077 7.246769-5.04123 7.246769h-31.82277l1.260308 3.150769 0.315077 3.15077-1.575385 2.205538c-1.890462 0.945231-3.150769 0-4.096-2.520615-1.890462-5.356308-5.041231-10.712615-9.13723-15.753847-1.575385-1.890462-1.575385-3.780923-0.630154-5.671384 1.575385-1.575385 3.150769-1.575385 4.726154 0.315077 1.575385 1.575385 3.465846 4.096 5.671384 7.561846h10.712616c-1.575385-11.342769-8.822154-18.589538-21.740308-23.000615-1.890462-0.945231-2.835692-2.520615-2.520615-4.726154 0.945231-2.205538 2.205538-3.150769 4.411077-2.520616 11.342769 3.150769 18.904615 8.507077 22.685538 17.959385 5.356308-10.082462 14.178462-17.014154 26.151385-19.849846l2.835692 0.315077 1.575385 2.205538c0.315077 3.150769-0.630154 4.726154-2.835693 5.356308z m-69.316923-5.671385c6.931692 3.780923 12.918154 7.876923 17.959385 12.288l1.575384 2.835693-0.630153 3.150769-2.205539 1.260307-2.835692-1.260307c-5.041231-4.411077-10.397538-8.192-16.699077-11.657846-2.205538-1.260308-2.835692-2.835692-1.890462-5.041231 0.630154-2.205538 2.520615-2.520615 4.726154-1.575385z m-1.260308 33.713231l0.630154-0.315077c4.726154-1.575385 9.137231-3.465846 13.233231-5.671385 1.890462-0.945231 3.465846-0.315077 4.096 2.205539v2.835692l-1.890461 2.205539c-4.096 1.890462-8.822154 4.096-14.493539 6.301538-1.890462 0.315077-3.150769-0.315077-3.780923-2.835692-0.630154-2.520615 0.315077-3.780923 2.205538-4.726154z m34.973539-44.110769c-2.205538 0-3.465846-1.575385-3.780923-4.411077-0.945231-17.959385-11.027692-27.411692-30.562462-27.726769-2.205538-0.315077-3.150769-1.890462-3.150769-4.096 0.315077-2.205538 1.890462-3.465846 4.096-3.15077 22.370462 0.630154 34.658462 11.972923 36.233846 34.343385 0 2.835692-0.945231 4.411077-2.835692 5.041231z m-92.632615 51.672615h18.904615c3.780923 0 5.671385-2.205538 5.671385-6.616615v-15.753846c0-1.575385 0-2.520615 0.315076-2.835693l2.205539-0.630154h7.246769c2.205538 0 3.150769-1.575385 3.150769-3.465846 0-2.520615-1.260308-3.780923-3.150769-3.780923h-8.822154c-2.835692 0-4.726154 0.630154-5.671384 2.205539-0.945231 1.260308-1.260308 3.780923-1.260308 8.192v13.863384c0 1.575385-0.630154 2.205538-1.575385 2.205539H888.516923c-1.575385 0-2.205538-0.630154-2.205538-2.520616v-5.986461c0-9.137231-3.465846-16.068923-10.712616-21.425231-2.205538-1.575385-3.780923-1.575385-5.041231 0.630154-1.260308 2.205538-0.630154 4.411077 1.260308 5.671385 5.986462 4.096 8.507077 9.767385 8.507077 16.699076v7.24677c0.315077 4.096 2.205538 6.301538 6.301539 6.301538z m24.260923-37.809231c2.835692 0 4.411077-1.260308 5.356307-3.150769 0.945231-2.205538 0.630154-5.041231-0.630154-8.507077-3.780923-9.767385-8.507077-17.644308-14.178461-23.630769 6.616615-4.726154 13.863385-7.876923 21.425231-9.137231 2.205538-0.630154 3.150769-2.205538 3.150769-4.726154-0.315077-2.520615-1.575385-3.465846-3.780923-3.150769-11.027692 2.520615-19.849846 6.301538-26.466462 11.972923-6.616615-5.041231-14.493538-8.822154-23.315692-11.657846-2.205538-0.630154-3.780923 0.315077-4.726154 2.520615-0.630154 2.520615 0.315077 4.411077 2.205539 5.041231 8.192 2.520615 14.808615 5.671385 20.164923 9.452308-4.411077 5.041231-8.192 10.712615-12.288 18.274461-1.260308 2.520615-1.260308 4.726154 0.630154 6.301539l2.835692 0.630154 2.205538-2.520616c3.780923-7.561846 7.876923-13.233231 12.918154-18.274461 6.301538 5.986462 10.712615 12.288 13.233231 19.534769 0.630154 1.890462 0.315077 2.835692-0.945231 3.150769h-29.932308c-1.575385 0-2.520615 1.260308-2.520615 3.780923 0 2.520615 0.945231 3.780923 2.520615 3.780923h32.137847v0.315077z m-46.631385 37.494154v-18.274461h7.246769c1.575385 0 2.205538-1.260308 2.205539-3.465846 0-2.205538-0.945231-3.465846-2.205539-3.465847h-7.246769v-20.48c1.260308 0.945231 3.150769 2.205538 5.041231 3.780923l0.315077 0.315077c1.890462 1.260308 2.835692 1.260308 4.096-0.94523l0.630154-3.465847-1.575385-2.520615c-3.780923-2.835692-6.616615-5.041231-8.192-5.986461v-27.72677c0-7.876923-3.780923-10.082462-11.657846-6.931692-2.205538 0.945231-2.835692 2.835692-2.835693 5.356308l1.575385 2.520615h2.835692c3.150769-1.575385 4.411077-1.575385 4.411077 0.630154v22.370461l-0.315077-0.315076c-3.150769-2.205538-5.356308-3.465846-6.301538-3.780924-1.575385-0.630154-2.520615 0.315077-3.465846 2.205539-0.630154 2.205538-0.315077 3.780923 1.260307 4.726154 0.945231 0.630154 2.520615 1.575385 4.411077 2.835692 2.205538 1.260308 3.465846 2.205538 4.411077 2.835692v24.260923h-7.561846c-1.575385 0-2.205538 1.260308-2.205538 3.465847 0 2.520615 0.945231 3.465846 2.205538 3.465846h7.561846v18.274461c0 1.890462 0.945231 3.150769 2.835693 3.15077 1.575385 0 2.520615-0.945231 2.520615-2.835693z m-247.335385-13.233231h13.863385c1.890462 0 2.835692 1.260308 2.835692 3.780924 0 2.520615-0.945231 3.780923-2.835692 3.780923h-11.972923c0.630154 3.150769 0.945231 4.726154 0.945231 5.04123 0.315077 2.520615-0.315077 4.096-2.520616 4.726154-2.205538 0.315077-3.465846-0.630154-4.096-3.150769-2.205538-12.288-5.671385-22.370462-11.027692-31.192615-1.260308-2.520615-1.260308-4.726154 0.315077-6.301539l2.835692-0.630154 2.835693 2.205539 1.890461 2.835692h3.465846v-13.548308h-8.192c-1.575385 0-2.520615-1.260308-2.520615-3.780923 0-2.205538 0.945231-3.780923 2.520615-3.780923h8.192v-31.192615c0-3.780923 0.630154-6.301538 2.205539-7.561846 1.575385-0.945231 3.150769-0.945231 5.356307 0.94523 3.780923 2.835692 7.561846 6.931692 11.34277 12.603077 1.260308 1.890462 1.260308 3.780923-0.315077 5.671385l-2.520616 0.945231-2.205538-1.575385c-2.205538-3.465846-4.096-5.671385-5.671385-7.561846l-1.575384-0.630154-0.630154 1.575385v26.151384h10.712615c1.575385 0.315077 2.520615 1.575385 2.520616 4.096s-0.945231 3.465846-2.520616 3.465847h-10.712615v13.548307h9.137231c1.890462 0 2.835692 1.575385 2.835692 3.780923 0 2.520615-1.260308 3.780923-2.835692 3.780923h-15.753847l0.630154 1.575385c1.575385 5.041231 2.835692 8.192 3.465846 10.397538z m24.576-26.781538v12.288h26.466462v-9.137231c0-1.575385-0.945231-2.835692-2.520615-2.835692h-23.945847v-0.315077z m0 28.987077c0 1.575385 0.945231 2.835692 2.520616 2.835692h21.425231c1.260308 0 2.520615-1.260308 2.520615-2.835692v-9.452308h-26.466462v9.452308z m38.439385-73.097846l-1.890462 2.520615c-5.671385 3.465846-10.082462 7.561846-13.548307 11.972923l1.575384 1.575385c3.465846 3.780923 6.301538 7.561846 8.507077 10.712615 1.260308 1.890462 0.945231 3.780923-0.315077 5.671385l-2.205538 0.945231-2.205539-1.575385c-3.150769-4.411077-5.986462-8.192-8.822153-11.027692-2.835692 5.041231-4.726154 10.397538-5.671385 16.068923h13.863385c2.835692 0 5.356308 2.835692 5.356307 6.616615V130.363077c0 3.780923-2.520615 6.616615-5.356307 6.616615h-28.041847c-2.835692 0-5.356308-2.835692-5.356307-6.616615v-76.563692c0.315077-7.561846 2.835692-10.082462 8.192-7.561847 3.150769 2.205538 6.931692 5.986462 11.342769 11.657847 1.575385 2.205538 1.575385 4.411077 0 6.616615l-2.520615 0.945231-2.520616-1.890462c-2.205538-3.465846-4.726154-6.301538-6.931692-8.192l-0.945231-0.315077-0.315077 1.260308v33.713231h6.931693c3.465846-18.589538 12.288-32.137846 26.151384-40.644923l2.835692-0.945231 2.205539 1.890461-0.315077 2.835693z m45.371077 82.235077h39.069538c2.205538 0 3.780923-1.575385 3.780923-4.096s-1.575385-4.096-3.780923-4.096h-39.069538c-2.205538 0.315077-3.150769 1.260308-3.150769 4.096-0.315077 2.520615 0.945231 4.096 3.150769 4.096z m-3.150769-23.315693h46.316307c1.890462 0 3.150769-1.260308 3.15077-4.096s-1.260308-3.780923-3.15077-4.096H759.335385v-42.220307c0-7.876923-1.890462-12.603077-5.671385-14.178462-4.096-1.890462-11.342769-0.945231-21.740308 2.520616l-2.205538 1.890461v3.780923l1.575384 2.520616c0.945231 0.630154 1.575385 0.315077 2.835693 0 7.561846-2.520615 12.288-3.465846 14.808615-2.835693 2.520615 0.630154 3.780923 2.835692 3.780923 7.561846v41.275077h-30.247384c-2.205538 0.315077-3.150769 1.260308-3.15077 4.096-0.630154 2.520615 0.630154 3.780923 2.835693 3.780923z m-14.178462 25.206154l1.890462 2.520616h2.520615l1.575385-2.835693-0.315077-3.465846c-3.780923-8.822154-7.876923-16.384-12.288-22.685538l-2.205539-1.575385-2.520615 0.945231c-1.575385 1.890462-1.575385 3.780923-0.315077 5.671384 4.726154 6.931692 8.507077 14.178462 11.657846 21.425231z m-7.561846-54.508307l-2.520615-1.575385-2.205539 1.260308-0.945231 3.150769 0.945231 3.150769c5.041231 6.931692 9.137231 14.808615 12.603077 23.630769l1.890462 2.835693h2.520615l1.890462-2.520616-0.315077-3.465846c-0.315077-1.575385-1.260308-3.780923-2.835693-6.616615l-0.94523-1.890462v-50.727384c0-2.835692-0.945231-4.411077-3.15077-4.411077s-3.150769 1.890462-3.150769 4.411077v39.069538l-3.780923-6.301538z m-226.855385 11.657846c-0.630154 2.205538-1.260308 3.780923-1.890461 5.356307l-0.945231 2.835693-0.315077 2.520615v2.205539l3.150769 18.904615V128.157538c0.315077 2.835692 0 5.041231-0.315077 5.986462-0.630154 1.260308-2.205538 1.890462-4.411076 1.890462h-11.657847c-4.096 0-5.356308-2.520615-5.356307-6.301539v-80.659692c0-2.205538 1.260308-3.780923 3.150769-3.780923s3.150769 1.575385 3.150769 3.780923v76.248615c0 2.205538 0.630154 3.150769 2.205539 3.150769h4.726153c1.260308 0 1.890462-0.945231 1.890462-2.520615l-2.835692-17.014154-0.315077-3.465846c0-1.890462 0-3.780923 0.945231-5.671385l0.94523-2.835692 2.520616-7.561846c0.630154-2.835692 0.945231-5.986462 0.94523-7.876923 0-2.520615-0.630154-3.780923-0.94523-4.726154-0.630154-0.630154-0.945231-1.260308-2.520616-1.260308l-2.520615 0.630154c-1.575385 0.315077-3.150769-0.630154-3.780923-2.835692-0.315077-1.890462 0.630154-4.096 2.205538-4.411077 1.575385-0.315077 2.835692-0.945231 4.096-0.945231h0.315077c2.835692 0 5.671385 1.260308 7.246769 3.780923 1.890462 2.520615 2.520615 5.986462 2.520616 9.767385 0.315077 4.096-0.945231 8.822154-2.205539 12.918154z m6.301539 3.150769c-1.890462-0.945231-2.205538-2.835692-1.260308-5.356308 3.780923-10.397538 6.616615-19.534769 8.192-28.041846 0.630154-2.520615 1.890462-4.096 3.780923-3.465846 1.575385 0.315077 2.520615 2.205538 2.205539 5.041231-1.575385 9.137231-4.411077 18.589538-8.507077 28.987077-1.260308 2.835692-2.835692 3.780923-4.411077 2.835692z m44.740923 18.274461l-2.205539 2.205539c-8.822154 4.411077-15.753846 11.027692-21.42523 19.534769-2.520615 4.411077-5.356308 4.096-8.192-0.630154-5.356308-8.507077-10.712615-14.808615-18.274462-21.110154-2.520615-2.205538-1.890462-5.041231-1.260308-5.986461 1.260308-1.890462 3.150769-2.205538 5.041231-0.630154 9.137231 7.246769 12.918154 13.233231 15.753846 17.959385 1.575385 2.205538 2.520615 3.150769 2.835693 3.150769 0.315077 0 1.575385-1.260308 3.150769-3.465846 3.780923-5.356308 10.082462-11.027692 19.219692-16.699077l2.835693-0.315077 2.205538 2.205538 0.315077 3.780923z m-29.932308-14.178461c-1.890462-0.630154-2.520615-2.520615-2.205538-5.041231 1.890462-8.192 3.150769-17.329231 4.096-27.096615 0.315077-2.835692 1.575385-4.411077 3.465846-4.096 1.890462 0.315077 2.835692 2.205538 2.520615 5.041231-0.945231 10.397538-2.205538 19.849846-4.411077 28.356923-0.315077 2.205538-1.575385 3.465846-3.465846 2.835692z m16.699077-3.465846c-1.575385-13.863385-3.780923-25.206154-6.616615-34.028308-0.945231-2.520615-0.315077-4.726154 1.575384-5.356308 2.520615-0.945231 3.780923 1.890462 4.096 3.15077 3.465846 11.027692 6.301538 23.000615 6.931693 34.973538 0.315077 2.835692-0.630154 4.726154-2.520616 5.356308-1.890462 0.315077-3.150769-1.260308-3.465846-4.096z m9.452308-41.905231h-42.850462c-1.890462 0-2.835692-1.575385-3.150769-3.780923 0-2.520615 0.945231-3.780923 2.835692-3.780923h42.850462c1.575385 0.315077 2.520615 1.260308 2.835692 3.780923-0.315077 2.520615-0.945231 3.780923-2.520615 3.780923z m-10.082462 57.028923h-24.260923c-1.890462-0.315077-2.835692-1.260308-3.150769-3.780923 0-2.520615 0.945231-3.780923 2.835692-4.096h24.260923c1.575385 0.315077 2.520615 1.575385 2.835693 3.780923 0 2.520615-0.945231 3.780923-2.520616 4.096z m-137.373538 24.891077l-2.205539 1.890462c-2.205538 0.315077-3.780923-1.575385-4.411077-4.726154-1.890462-13.548308-5.986462-24.576-11.972923-33.398154-1.260308-2.205538-1.260308-4.411077 0.315077-6.616616l2.205539-1.260307 2.520615 1.575384c1.260308 1.890462 3.150769 5.671385 3.150769 5.671385v-51.672615c0-2.835692 1.260308-4.411077 3.15077-4.411077 2.205538 0 3.150769 1.575385 3.150769 4.411077v65.536c2.205538 6.931692 3.780923 13.233231 4.411077 18.904615 0.315077 1.575385 0.315077 2.835692-0.315077 4.096z m11.342769-26.781538c-1.260308 0-2.205538 1.260308-2.205538 2.835692v13.548308c0 1.575385 0.945231 2.835692 2.205538 2.835692H419.052308c1.260308 0 2.520615-1.260308 2.520615-2.835692v-13.548308c0-1.575385-0.945231-2.835692-2.520615-2.835692h-34.343385z m50.097231-53.248l-1.575385 2.205538c-13.233231 7.561846-22.370462 16.068923-27.096615 25.521231h24.260923c1.575385 0 2.520615 1.575385 2.520615 3.465846 0 1.890462-0.945231 3.465846-2.520615 3.465846h-26.151385v10.712615h17.644308c2.835692 0 5.041231 3.150769 5.041231 6.616616v21.110154c0 3.465846-2.205538 6.616615-5.041231 6.616615H381.243077c-2.835692 0-5.356308-2.835692-5.356308-6.616615v-21.110154c0-3.465846 2.520615-6.616615 5.356308-6.616616h17.014154v-10.712615h-23.945846c-1.575385 0-2.520615-1.575385-2.520616-3.465846 0-1.890462 0.945231-3.465846 2.520616-3.465846h22.685538c-4.096-7.876923-12.288-16.068923-24.891077-24.891077-1.575385-1.260308-1.575385-3.150769-0.630154-5.671385 1.260308-2.205538 2.520615-2.835692 4.096-1.890461 10.712615 7.246769 18.589538 15.123692 23.000616 23.630769v-28.987077c0.315077-2.205538 1.260308-3.780923 3.150769-3.780923s2.835692 1.260308 3.150769 3.780923v28.987077c5.986462-9.452308 14.493538-17.644308 25.521231-24.891077h2.520615l1.890462 2.520615v3.465847z m379.982769 35.288615c0-3.780923-2.520615-6.616615-5.356308-6.616615-2.835692 0-5.356308 2.835692-5.356307 6.616615 0 3.465846 2.205538 6.616615 5.356307 6.616615 2.835692 0 5.356308-3.150769 5.356308-6.616615z m-245.76 0c0-3.780923-2.520615-6.616615-5.356308-6.616615-3.150769 0-5.356308 2.835692-5.356307 6.616615 0 3.465846 2.205538 6.616615 5.356307 6.616615s5.356308-3.150769 5.356308-6.616615z"  horiz-adv-x="1370" />

    
    <glyph glyph-name="pufayinhang" unicode="&#58927;" d="M507.345455 488.727273c-65.163636 128-230.4 109.381818-265.309091 0 0 0-4.654545-34.909091-9.309091-72.145455V190.836364l104.727272-100.072728V363.054545c0 2.327273 11.636364 134.981818 169.89091 125.672728z m-155.927273-209.454546s174.545455-23.272727 179.2 153.6c-2.327273 167.563636 211.781818 179.2 269.963636 58.181818 0 0-151.272727-2.327273-167.563636-128 0 0 2.327273-155.927273-116.363637-169.890909 0-2.327273-130.327273-25.6-165.236363 86.109091zM651.636364 283.927273c65.163636-128 225.745455-107.054545 262.981818 2.327272 0 0 11.636364 23.272727 11.636363 69.818182v223.418182l-104.727272 100.072727v-272.290909c0-2.327273-11.636364-134.981818-169.890909-123.345454z"  horiz-adv-x="1128" />

    
    <glyph glyph-name="huaxiayinhang1" unicode="&#58891;" d="M931.924 125.974s46.469 55.76 49.093 79.765c0 0-1.263 33.151-27.816-18.626 0 0 6.621 31.86-12.02 15.864 0 0-90.369-104.929-128.871-110.244 0 0-285.695-168.775-415.968 171.391 0 0-55.809 160.849 75.727 281.78 131.591 120.995 260.503 108.919 378.743 21.229 0 0 59.806 67.843 85.082 54.469 0 0 22.596 13.373 11.936 33.221l-33.199 42.471s-130.218-21.228-127.594 51.84c0 0 9.243 54.47-85.054 33.241 0 0-22.553 21.229-21.25 33.228 0 0 6.635 31.853-95.685 14.615 0 0-151.48-18.606-317.631-208.616 0 0-167.4-136.789-167.4 4.067 0 0-91.715-93.083-42.526-167.463 0 0 55.851-78.391 162.153-14.622 0 0-33.186-257.783 136.838-392.081 0 0 178.074-164.708 382.754-106.303 0 0 171.383 35.906 236.506 208.762-0.001 0-30.536-30.611-43.818-27.988zM549.197 236.267h283.018V451.593l-283.017-1.381v-213.945h-0.001z"  horiz-adv-x="1024" />

    
    <glyph glyph-name="qicheyuechi" unicode="&#58948;" d="M1024.825806-128h-187.458064l-44.593548 45.419355v57.806451h-59.458065l-15.690323 18.167742-0.825806 56.980646h-57.806452L526.03871 183.329032l187.458064 187.458065 311.329032-311.329032V-128zM796.903226 500.43871L426.941935 870.4C393.083871 904.258065 332.8 904.258065 298.941935 870.4l-272.516129-272.516129C9.083871 580.541935 0 558.245161 0 534.296774c0-23.948387 9.083871-47.070968 26.425806-63.587097L396.387097 99.922581c17.341935-17.341935 39.63871-26.425806 63.587097-26.425807 23.948387 0 47.070968 9.083871 63.587096 26.425807l272.516129 272.516129c17.341935 17.341935 26.425806 39.63871 26.425807 63.587096 0.825806 24.774194-8.258065 47.070968-25.6 64.412904z m-559.896774-52.025807c-23.948387 0-47.070968 9.083871-63.587097 26.425807-35.509677 35.509677-35.509677 92.490323 0 128l121.393548 121.393548c33.858065 33.858065 94.141935 33.858065 128 0 35.509677-35.509677 35.509677-92.490323 0-128L300.593548 474.83871c-16.516129-17.341935-39.63871-26.425806-63.587096-26.425807zM505.393548 243.612903c-29.729032-29.729032-77.625806-29.729032-106.529032 0-29.729032 29.729032-29.729032 77.625806 0 106.529032 29.729032 29.729032 77.625806 29.729032 106.529032 0 29.729032-28.903226 29.729032-76.8 0-106.529032z m147.819355 147.819355c-29.729032-29.729032-77.625806-29.729032-106.529032 0-29.729032 29.729032-29.729032 77.625806 0 106.529032 29.729032 29.729032 77.625806 29.729032 106.529032 0 29.729032-28.903226 29.729032-76.8 0-106.529032zM358.4 692.025806c-8.258065 0-16.516129-3.303226-23.122581-9.083871L213.883871 561.548387c-5.780645-5.780645-9.909677-14.03871-9.909677-23.122581 0-8.258065 3.303226-16.516129 9.909677-23.12258 12.387097-12.387097 33.858065-12.387097 45.419355 0l121.393548 121.393548c12.387097 12.387097 12.387097 33.032258 0 46.245161-5.780645 5.780645-14.03871 9.083871-22.296774 9.083871z"  horiz-adv-x="1024" />

    
    <glyph glyph-name="03030000" unicode="&#58893;" d="M92 567.4h187.9s35.5 0 42.2-10.1h-34.8v-10.7l53.5-0.7s8.7-6 8.7-10.7l-62.2-0.7v-10h68.9s8-4 6.1-12.7h-214.8v-11.4l218 0.7s1.3-8.7 1.3-11.4h-219.3v-11.3l220 0.7s1.3-6.7-2-11.4l-218-2v-10.7l214.7 1.3s0-8.7-5.4-11.4l-209.3-1.3v-10l202.6 1.3s-0.7-10.7-8-12.7l-194.6-0.7v-10.6l178.5 1.3s-4-13.4-31.4-12l-33.5 0.6v-10l54.2-0.7s22.7 0 26.1-9.3l-80.3-2v-10h94.3s8.6-6.6 8.6-10.7l-216.7-1.3v-12l221.3 2s8.7-6 8.7-12l-230.1-1.3v-10.1h233.8s2.7-3.3 1.3-9.4l-234.7-2v-10h234.7s2-6 0-10.7l-234.7-1.4v-10.7h232.7s2-6.7-3.3-12h-229.5v-10.7l224.7 0.7s-0.7-10.7-5.4-11.4h-79.6v-11.4l68.9 0.7s-4.7-10.7-9.4-12l-59.5-0.7v-11.5l40.1 0.6s-6-12.7-58.9-10.7l-176.4 0.7v365.9zM397.6 329.3s-6 49.5 50.1 58.9c0 0 104.3 21.4 107-43.5l2-120.4 6.7-20.8-53.5-1.3-3.4 18.7s-26.8-28.1-70.2-18.1c0 0-46.8 3.4-46.8 54.9 0 0-2 34.1 30.1 46.2 0 0 52.2 14.7 68.2 14.7 0 0 35.5 6 5.3 30.8 0 0-44.1 10-45.5-19.4l-50-0.7zM572.8 385.4h50.9l-0.7-19.4s28.1 28.8 49.5 26.1c0 0 54.2 10.7 64.9-52.8l1.3-136.5h-50.1l-0.7 123.1s-14.1 35.5-50.1 12.7c0 0-16.1-6-13.4-47.5l0.6-88.3-50.8 0.7-1.4 181.9zM756.8 459.7l46.8-0.7 2.6-139.1 56.9 74.3h58.2l-52.8-72.9 63.5-116.4-58.8-2-40.8 74.9-24.7-33.5 0.6-40.8h-50.1l-1.4 256.2zM506 290.5s-0.6-19.4 0-23.4c0 0-6-19.4-22.7-22.8 0 0-32.1-19.4-42.8 5.4 0 0-4.7 14.7 10.7 20.7 0 0 52.1 13.4 54.8 20.1z"  horiz-adv-x="1024" />

    
    <glyph glyph-name="ico_zuo1" unicode="&#58904;" d="M814.415 402.44l0.013 0.014-1.833 1.731-511.929 491.25-91.372-99.544 417.148-400.296-388.24-429.624 98.064-92.648 478.149 529.117z"  horiz-adv-x="1024" />

    
    <glyph glyph-name="guangdayinhang" unicode="&#58895;" d="M0 607.843h229.083s43.264 0 51.417-12.265h-42.43v-13.019l65.236-0.807s10.583-7.34 10.583-13.069l-75.806-0.813v-12.228h83.987s9.75-4.89 7.375-15.487H67.695v-13.889l265.764 0.833s1.597-10.59 1.597-13.876H67.695v-13.826l268.236 0.805s1.599-8.165-2.473-13.861l-265.75-2.458v-13.056l261.737 1.646s0-10.617-6.598-13.874l-255.138-1.632v-12.202l247 1.619s-0.818-13.035-9.805-15.48l-237.208-0.806v-13.096l217.639 1.646s-4.82-16.279-38.277-14.646l-40.764 0.777v-12.228l66.055-0.821s27.639 0 31.833-11.403l-97.889-2.464v-12.222h114.985s10.556-8.126 10.556-13.035l-264.125-1.611V336.3l269.821 2.424s10.625-7.291 10.625-14.597L67.71 322.482v-12.265h284.556s3.222-4.063 1.597-11.445L67.71 296.343v-12.222h286.154s2.415-7.335 0-13L67.709 269.44v-13.049h283.695s2.458-8.118-4.083-14.646H67.709v-13.029l273.918 0.814s-0.861-13.084-6.556-13.868h-96.986v-13.876l83.986 0.819s-5.709-13.049-11.404-14.689l-72.583-0.819v-13.853l48.889 0.813s-7.334-15.521-71.737-13.049L0.014 161.816V607.843H0zM586.181 386.071l1.652-221.825 61.945-0.764-0.777 107.647c-3.292 50.539 16.361 57.839 16.361 57.839 43.971 27.729 61.139-15.5 61.139-15.5l0.763-149.987h61.124l-1.625 166.313c-12.986 77.445-79.111 64.409-79.111 64.409-26.043 3.286-60.349-31.805-60.349-31.805l0.862 23.675h-61.984v-0.002z m224.249 90.487l1.585-312.312h61.138l-0.777 49.77 30.153 40.771 49.763-91.306 71.709 2.45L946.598 307.8l64.347 88.854h-70.874l-69.375-90.491-3.152 169.555-57.112 0.839h-0.002v0.001zM564.944 188.884l-2.443 146.737c-3.251 79.104-130.432 53.012-130.432 53.012-68.416-11.443-61.124-71.749-61.124-71.749l61.124 0.819c1.654 35.868 55.431 23.639 55.431 23.639 36.736-30.152-6.487-37.499-6.487-37.499-19.568 0-83.166-17.931-83.166-17.931-39.124-14.689-36.666-56.244-36.666-56.244 0-62.763 57.015-66.868 57.015-66.868 53.013-12.236 85.638 21.98 85.638 21.98l4.097-22.813 65.18 1.591-8.166 25.327-0.001-0.001z m-60.777 52.89s-6.334-20.479-25.21-29.402c0 0-41.11-21.987-54.167 8.173 0 0-4.36 19.153 14.39 26.493 0 0 48.847 17.556 65.487 23.229 0.001 0 1.749-12.793-0.5-28.493z"  horiz-adv-x="1024" />

    
    <glyph glyph-name="youzhengyinhang" unicode="&#58906;" d="M103.884 328.348l-7.42-29.682h148.404l7.42 29.682H103.884z m371.013-29.681l7.42 29.682H319.071l-7.42-29.682h163.246z m89.045 140.988L541.68 328.348l-7.42-29.682-22.262-111.303H274.55l-7.42-29.682h274.55l37.101 163.247 22.262 111.303h326.493l-22.262-111.303h-259.71l-59.36-281.972H244.868l-7.42-29.682h378.436l37.101 163.247 22.259 111.306h222.609l-22.259-111.306H719.769l-37.101-163.247-14.842-96.464H155.824l59.363 274.553H0l22.259 111.303 7.423 29.682L51.94 439.655h215.19l59.363 274.55h237.449l29.682 140.984H1024l-22.262-111.303H638.144l-7.42-29.681-22.262-111.303H371.014l-7.42-29.682h274.55l7.42 29.682 22.262 111.303h326.493l-22.262-111.303H712.349l-29.681-140.988H341.332l-7.42-29.681h230.029v7.422h0.001z"  horiz-adv-x="1024" />

    
    <glyph glyph-name="yuechi1" unicode="&#59257;" d="M574.5 569.6H90.9V869.9h483.6l105.3-70.2v-159.9zM574.5 554.6H90.9c-8.3 0-15 6.7-15 15V869.9c0 8.3 6.7 15 15 15h483.6c3 0 5.9-0.9 8.3-2.5l105.3-70.2c4.2-2.8 6.7-7.5 6.7-12.5v-159.9c0-5-2.5-9.7-6.7-12.5l-105.3-70.2c-2.4-1.6-5.3-2.5-8.3-2.5z m-468.6 30H570l94.8 63.2V791.7L570 854.9H105.9v-270.3zM188.4 628.7c-8.3 0-15 6.7-15 15V795.8c0 8.3 6.7 15 15 15s15-6.7 15-15v-152.1c0-8.3-6.7-15-15-15zM289.8 628.7c-8.3 0-15 6.7-15 15V795.8c0 8.3 6.7 15 15 15s15-6.7 15-15v-152.1c0-8.3-6.7-15-15-15zM449.7 628.7h-64.4c-8.3 0-15 6.7-15 15v76.1c0 8.3 6.7 15 15 15h49.4v46.1h-49.4c-8.3 0-15 6.7-15 15s6.7 15 15 15h64.4c8.3 0 15-6.7 15-15v-76.1c0-8.3-6.7-15-15-15h-49.4v-46.1h49.4c8.3 0 15-6.7 15-15s-6.7-15-15-15zM592.1 719.8m-33.2 0a33.2 33.2 0 1 1 66.4 0 33.2 33.2 0 1 1-66.4 0ZM592.1 671.6c-26.6 0-48.2 21.6-48.2 48.2s21.6 48.2 48.2 48.2 48.2-21.6 48.2-48.2-21.7-48.2-48.2-48.2z m0 66.3c-10 0-18.2-8.1-18.2-18.2s8.1-18.2 18.2-18.2 18.2 8.1 18.2 18.2-8.2 18.2-18.2 18.2zM875.3 206.2c70.9 71.8 70.2 187.4-1.5 258.3s-187.4 70.2-258.3-1.5c-57.3-58-67.8-144.5-31.9-213.1L322.5-14.3l87.4-86.4 24.6 41.5 18.9 52.5 49.5 16.8 52.2 52.8 2.4 52.4 60.6 11.4 44.5 45c68.9-35 155.4-23.5 212.7 34.5zM409.8-115.6c-3.9 0-7.7 1.5-10.5 4.3l-87.4 86.4c-2.8 2.8-4.4 6.6-4.5 10.6 0 4 1.5 7.8 4.3 10.6l253.6 256.6c-15.6 34.3-21 71.9-15.7 109.6 6 42.2 25 80.6 55.1 111 76.6 77.5 202 78.3 279.5 1.7 37.6-37.1 58.4-86.6 58.7-139.4 0.3-52.8-20-102.6-57.1-140.1-30.1-30.4-68.2-49.9-110.4-56.4-37.6-5.8-75.4-0.8-109.8 14.4l-37-37.5c-2.1-2.2-4.9-3.6-7.9-4.2l-48.9-9.2-1.9-40.5c-0.2-3.7-1.7-7.2-4.3-9.9l-52.2-52.8c-1.6-1.7-3.6-2.9-5.8-3.7L465-18.5l-16.5-45.7c-0.3-0.9-0.7-1.7-1.2-2.6l-24.6-41.5c-2.4-4-6.4-6.6-11-7.2-0.6-0.1-1.2-0.1-1.9-0.1z m-66.1 101.5l63.1-62.3 14.1 23.8 18.5 51.1c1.5 4.3 5 7.6 9.3 9.1l46.2 15.7 45.6 46.2 2.1 46.6c0.3 7 5.4 12.8 12.2 14.1l56 10.5 41.2 41.7c4.6 4.6 11.7 5.8 17.5 2.8 31.4-16 66.6-21.6 101.6-16.2 35.7 5.5 68.1 22 93.6 47.8 31.5 31.9 48.7 74.1 48.4 118.8-0.3 44.8-18 86.8-49.8 118.3-65.8 65-172.1 64.4-237.1-1.4-25.5-25.8-41.6-58.3-46.7-94.1-5-35.1 1.1-70.2 17.4-101.4 3-5.8 2-12.9-2.6-17.5L343.7-14.1zM806.1 396.1m-33.2 0a33.2 33.2 0 1 1 66.4 0 33.2 33.2 0 1 1-66.4 0ZM806.1 347.9c-12.8 0-24.8 4.9-33.8 13.9-18.9 18.7-19.1 49.2-0.4 68.1 18.7 18.9 49.2 19.1 68.1 0.4 9.1-9 14.2-21.1 14.3-34s-4.9-25-13.9-34.1c-9-9.1-21.1-14.2-34-14.3h-0.3z m0 66.3c-4.7 0-9.4-1.8-12.9-5.4-7-7.1-7-18.6 0.2-25.7 3.4-3.4 7.9-5.2 12.8-5.2h0.1c4.8 0 9.4 1.9 12.8 5.4 3.4 3.4 5.3 8 5.2 12.9 0 4.8-1.9 9.4-5.4 12.8-3.6 3.5-8.2 5.2-12.8 5.2zM839.3 404.8c-3.8 0-7.6 1.4-10.5 4.3-5.9 5.8-6 15.3-0.1 21.2 35.2 35.7 54.6 83.6 54.6 135 0 103.4-80 187.5-178.3 187.5-29 0-57.9-7.5-83.4-21.7-7.2-4-16.4-1.4-20.4 5.8-4 7.2-1.4 16.4 5.8 20.4 29.9 16.7 63.8 25.5 98 25.5 55.8 0 108.2-22.7 147.5-63.9 39.2-41 60.8-95.6 60.8-153.5 0-59.3-22.5-114.8-63.3-156.1-3-3-6.8-4.5-10.7-4.5z"  horiz-adv-x="1024" />

    
    <glyph glyph-name="jiaotongyinhang" unicode="&#58892;" d="M808.58871 128.01475c-60.121941-1.932998-115.686887-3.879996-175.782828-5.810994-38.066963-161.894842-352.843655-118.182885-317.77169 87.269914 17.624983 121.701881 182.079822 174.859829 284.119723 82.956919 22.413978-25.330975 33.408967-48.870952 40.60296-100.429902 50.418951 1.933998 118.424884 3.878996 168.831835 5.811995 2.546998 261.822744-294.834712 394.699615-517.823494 267.646738-213.772791-121.777881-189.094815-492.849519 34.917966-587.620426v-5.836994c-122.149881 2.405998-256.13975 97.023905-285.311721 209.458795l1.650998 603.621411C138.982364 751.027142 246.15726 830.067064 343.130165 896l11.647989-5.823994c-6.719993-90.994911-2.457998-241.036765 2.904997-350.539658 60.749941 58.955942 101.682901 120.613882 206.553798 141.093862 67.583934 13.195987 132.287871 5.234995 173.093831-8.729991 306.366701-104.959898 325.439682-500.836511 65.458936-637.092378-5.835994 0-18.482982-11.455989-28.133972-13.350987 0 1.932998 6.079994 10.34299 10.661989 19.174981l23.269977 87.282915z"  horiz-adv-x="1024" />

    
    <glyph glyph-name="guangfayinhang" unicode="&#59259;" d="M593.067 503.468c-21.333 44.8-42.667 89.601-61.867 134.4-36.266 85.334-66.133 170.667-93.867 258.133-96-279.467-247.467-537.6-437.333-755.2 136.533 32 277.333 53.333 418.133 61.867 64 96 123.733 196.266 174.933 300.8zM593.067 206.933c-57.6 0-117.334-2.133-174.933-6.4-78.933-115.2-166.4-226.134-262.4-328.532 140.8 27.733 287.997 40.533 437.333 40.533s296.533-12.8 437.333-40.533c-98.133 102.4-185.6 213.333-262.4 330.666-59.733 4.267-117.332 4.267-174.933 4.267zM0 140.8L155.733-128c98.133 102.4 185.6 213.333 262.4 330.668-140.8-10.667-281.6-29.867-418.133-61.867zM746.666 896c-25.6-87.467-57.6-172.8-93.867-258.133-19.2-44.8-40.533-89.601-61.867-134.4 51.201-104.533 108.801-204.8 174.933-300.8 140.8-8.533 281.6-29.867 418.133-61.867C994.131 358.4 844.797 616.534 746.665 896zM593.067 503.468c21.333 44.8 42.667 89.601 61.867 134.4 36.268 85.334 66.133 170.667 93.867 258.133H437.334c25.6-87.467 57.6-172.8 93.867-258.133 19.2-44.8 40.533-89.601 61.867-134.4zM1030.4-128l155.733 268.8C1049.6 172.8 908.8 194.133 768 202.667c76.8-117.332 164.269-228.267 262.4-330.668z"  horiz-adv-x="1187" />

    
    <glyph glyph-name="xinxinicon1" unicode="&#58939;" d="M1080.981 446.158l-125.195-20.038-18.595-15.87-37.35 42.64c-7.855 8.977-22.282 8.977-31.259 1.122l-17.473-15.549-350.417 390.172-3.366 3.366-3.366-3.366-22.442 1.122h-29.014l-2.244-29.014-2.244-22.442-2.244-2.244 2.244-2.244v-1.122l23.564-25.648-2.244-23.564-3.366-27.892h51.456l5.611-5.611-2.244-22.282-3.366-29.175h51.456l5.45-5.611-2.244-22.282-3.206-29.175h51.296l5.611-5.45-3.366-22.442-3.366-29.014h52.579l4.488-5.611-2.244-22.442-3.366-29.014h52.579l4.488-5.611-2.244-22.282-3.366-29.175h29.175l22.282 1.122 25.648-28.373-24.526-21.961c-8.977-7.855-8.977-21.16-1.122-30.137l35.426-39.434-15.229-13.145-40.235-136.416 204.544-221.375 99.547 7.694 206.948 186.91 12.183 110.607-185.628 220.253zM1135.804 110.809l-86.081-78.387c-11.221-9.939-29.014-8.817-39.113 2.244l-17.954 20.198c-9.939 11.221-8.977 27.892 2.244 37.991l84.959 78.227c11.221 10.099 29.175 10.099 39.113-1.122l17.954-21.16c11.221-10.099 10.099-28.053-1.122-37.991z"  horiz-adv-x="1824" />

    
    <glyph glyph-name="search" unicode="&#59035;" d="M788.912 486.046c0 207.651-168.326 376.031-376.081 376.031-207.652 0-375.98-168.38-375.98-376.031 0-207.653 168.328-376.031 375.979-376.031 207.756-0.001 376.082 168.378 376.082 376.031zM412.83 204.010c-155.739 0-281.932 126.247-281.932 282.036 0 155.739 126.193 282.036 281.932 282.036 155.843 0 282.036-126.297 282.036-282.036 0-155.791-126.192-282.036-282.036-282.036zM237.845 466.488h51.705c0 85.515 69.599 155.061 155.010 155.061v51.705c-113.918 0-206.716-92.746-206.716-206.767zM962.336 48.894l-204.632 204.635c-29.441-48.999-70.638-90.095-119.745-119.535l204.739-204.739c33.085-33.030 86.662-33.030 119.638 0 33.085 32.98 33.085 86.662 0 119.64z"  horiz-adv-x="1024" />

    
    <glyph glyph-name="zhongxinyinhang" unicode="&#58894;" d="M603.9 554.9v-543.3c26.6 6.8 51.7 15.7 76.3 27.9V661.1c-8.2-3.4-23.8-10.9-36.8-21.1-25.9-20.4-39.5-47-39.5-85.1zM381.3 640c-12.9 10.2-28.6 17.7-36.8 21.1v-621.6c23.8-11.6 49.7-21.1 76.3-27.9V554.9c0 38.1-13.7 64.7-39.5 85.1zM664.5 736c-46.3 20.4-98 31.3-151.8 31.3-53.8 0-104.9-10.9-151.1-30.6-7.5-4.1-17-10.9-17-22.5 0-20.4 27.9-15.7 63.3-44.3 32.7-25.9 49.7-62.6 49.7-103.5v-561.7c18.3-2.7 36.7-4.1 55.1-4.1 19.1 0 37.4 1.4 55.1 4.1V566.5c0 40.9 17 77.6 49.7 103.5 35.4 27.9 63.3 23.8 63.3 44.3 0 10.8-9.5 18.3-16.3 21.7zM512.7-26.6c-226.7 0-411.2 183.8-411.2 411.2s183.8 411.2 411.2 411.2c226.7 0 411.2-183.8 411.2-411.2S739.4-26.6 512.7-26.6z m0 858.6C264.9 832 64 631.8 64 384s200.9-448 448-448c247.8 0 448 200.9 448 448 0.7 247.8-200.2 448-447.3 448zM129.4 384c0-136.2 70.8-256 178.4-323.4V354c-43.6-1.4-59.9-27.2-64.7-38.1-4.1-8.2-6.8-17-14.3-17-12.9 0-23.1 36.8-23.1 81.7 0 44.9 10.2 81.7 23.1 81.7 7.5 0 10.2-8.9 14.3-17 4.8-10.2 21.1-36.8 64.7-37.4V708.1C200.2 640 129.4 520.2 129.4 384z m704-68.1c-4.1-8.2-6.8-17-14.3-17-12.9 0-23.1 36.8-23.1 81.7 0 44.9 10.2 81.7 23.1 81.7 7.5 0 10.2-8.9 14.3-17 4.8-10.2 20.4-35.4 62-37.4-7.5 126.6-76.3 236.3-177 300.3v-647.5c98.7 62.6 166.8 170.2 177 293.4-42.3-2.8-57.3-28-62-38.2z"  horiz-adv-x="1024" />

    
    <glyph glyph-name="zhaoshangyinhang" unicode="&#58896;" d="M959.6 402.5H797.3l7.2-18.5H960v18.5h-0.4zM220.5 202.7h248.2L342.1 509.6 220.5 202.7z m548 267.8h183.3l-1.8 8.2-1.8 7.7-0.6 2.6H760.2l8.3-18.5zM474.9 202.7h248.2L596.5 509.6 474.9 202.7zM879.7 208.9l-96.8-141.1H253.5l-104 129.7 228.6 590.1 129.8-309 123.6 312.1 118.4-277h191C885.3 697.9 714.3 832 512 832 264.6 832 64 631.4 64 384s200.6-448 448-448c193.5 0 358.4 122.7 421 294.5h-62.6l9.3-21.6zM814.8 359.3l8.3-18.6H958l2.1 18.6H814.8z m26.8-61.8h110.2l1.1 6.8 1.9 11.7H833.3l8.3-18.5zM786 427.3h172l-0.1 1.1-1 9.7-0.8 7.7H778.7l7.3-18.5z m65.9-154.5l8.2-17.5h81.4l5.2 17.5h-94.8z"  horiz-adv-x="1024" />

    
    <glyph glyph-name="zuo1" unicode="&#58890;" d="M512-128c283.456 0 512 229.824 512 512s-229.76 512-512 512C229.824 896 0 666.176 0 384s228.608-512 512-512zM331.328 411.84L585.6 667.392c7.936 7.68 17.92 11.136 27.968 11.136s20.032-3.456 28.032-11.136a39.232 39.232 0 0 0 0-55.808L413.888 384l226.304-224.192a37.632 37.632 0 0 0 0-54.656 37.76 37.76 0 0 0-54.656 0l-254.272 252.16a36.992 36.992 0 0 0-11.136 27.776c0 8.96 3.392 18.944 11.2 26.88v-0.128z"  horiz-adv-x="1024" />

    
    <glyph glyph-name="shafa" unicode="&#58889;" d="M450.1 64h-341.7c-24.5 0-44.4 19.9-44.4 44.4v403.6h832v211.6c0 59.8-48.6 108.4-108.4 108.4h-83.6v64h-64v-64h-384v64h-64v-64h-83.6c-59.8 0-108.4-48.6-108.4-108.4v-615.2c0-59.8 48.6-108.4 108.4-108.4h341.7c17.7 0 32 14.3 32 32s-14.3 32-32 32zM64 723.6c0 24.5 19.9 44.4 44.4 44.4h83.6v-96h64v96h384v-96h64v96h83.6c24.5 0 44.4-19.9 44.4-44.4v-147.6h-768v147.6zM160 416h224v-64h-224v64zM160 224h224v-64h-224v64zM800 320h-64v-160h160v64h-96zM949 373c-48.4 48.4-112.6 75-181 75s-132.7-26.6-181-75c-48.4-48.4-75-112.6-75-181s26.6-132.7 75-181c48.4-48.4 112.6-75 181-75s132.7 26.6 181 75c48.4 48.4 75 112.6 75 181s-26.6 132.7-75 181zM768 0c-105.9 0-192 86.1-192 192s86.1 192 192 192 192-86.1 192-192-86.1-192-192-192z"  horiz-adv-x="1024" />

    
    <glyph glyph-name="xinxinicon" unicode="&#59110;" d="M760.2931236666669 249.15989466666656c-12.255748 12.578268-29.671811 20.15748-48.377953 20.157481-19.512441 0-36.928504-7.579213-49.668032-20.157481-12.255748-12.255748-19.99622-29.671811-19.99622-48.700472 0-19.351181 7.740472-36.767244 19.99622-49.022992 12.739528-13.062047 30.155591-20.31874 49.668032-20.31874 18.706142 0 36.122205 7.256693 48.861732 20.31874 11.771969 12.255748 19.834961 29.671811 19.834961 49.022992 0 19.028661-8.062992 36.444724-19.834961 48.700472h-0.483779z m-29.188032-68.535433c-4.999055-4.837795-12.094488-7.740472-19.189921-7.740472-7.901732 0-14.835906 2.902677-19.673701 7.740472-4.999055 5.160315-7.579213 11.771969-7.579212 19.834961 0 7.417953 2.580157 14.190866 7.579212 19.028661 4.676535 5.160315 11.771969 8.062992 19.673701 8.062992 7.095433 0 14.190866-2.902677 19.189921-8.062992 4.837795-4.837795 7.579213-11.610709 7.579213-19.028661 0-8.062992-2.741417-14.674646-7.579213-19.834961zM1382.1110756666656 784.7038316666667C1365.9850916666658 801.3135956666666 1343.247453666666 810.6666666666666 1319.058477666666 810.6666666666666H1073.1372176666673c-24.672756 0-46.926614-9.353071-62.568819-25.962835-16.448504-15.964724-26.769134-38.379843-26.769134-63.052598v-33.380787H613.3854066666667c-5.644094 0-10.64315-2.902677-14.513386-6.450394l-78.372283-78.533543c-8.224252-7.901732-8.224252-21.286299 0-29.349292l57.892283-57.731023c4.354016-4.192756 9.353071-6.289134 14.835906-6.289134h390.571338v-33.542048c0-24.511496 10.32063-46.765354 26.769134-63.375118 15.642205-15.803465 37.896063-26.124094 62.568819-26.124094h49.668032l-23.221418-40.96c-15.158425 5.805354-31.12315 9.514331-47.894173 9.514331H653.8616276666668c-35.799685 0-67.890394-14.674646-91.111811-38.218583-23.543937-23.221417-37.734803-55.150866-37.734804-90.789291v-193.995591c0-35.477165 14.190866-67.406614 37.734804-90.950551 23.221417-23.221417 55.312126-37.412283 91.111811-37.412284h397.828031c35.638425 0 67.406614 14.190866 90.628032 37.412284 23.221417 23.543937 37.896063 55.473386 37.896063 90.950551V226.4222576666665c0 28.865512-9.353071 55.312126-25.479056 76.759685l48.700473 83.693858h115.623307c24.188976 0 46.926614 10.32063 63.052598 26.124094 15.964724 16.609764 26.124094 38.863622 26.124095 63.375118V721.6512336666667c0 24.672756-10.15937 47.087874-26.124095 63.052598zM983.7992646666675 551.8446196666667H601.7746976666666l-36.767244 36.928504 57.569764 57.569763h361.222047v-94.498267z m126.750237-519.417953c0-15.803465-7.095433-30.80063-17.416063-41.605039-10.965669-10.48189-25.156535-17.416063-41.44378-17.416063H653.8616276666668c-16.609764 0-30.80063 6.934173-41.60504 17.416063-11.126929 10.804409-17.416063 25.801575-17.416063 41.605039V226.4222576666665c0 16.287244 6.289134 30.96189 17.416063 41.766299 10.804409 10.64315 24.995276 17.093543 41.60504 17.093543h397.828031c4.031496 0 8.062992-0.16126 11.771969-1.128819l-20.318741-35.477165c-2.418898 0.48378-4.837795 0.48378-7.579212 0.483779-17.254803 0-33.058268-6.611654-44.023937-18.222362-11.771969-11.449449-18.706142-27.091654-18.706142-44.507716v-114.010709c0-17.254803 6.934173-32.413228 18.706142-43.862677 10.965669-11.610709 26.769134-18.222362 44.023937-18.222362 16.932283 0 32.897008 6.611654 44.185197 18.222362 11.126929 11.449449 18.383622 26.607874 18.383622 43.862677v114.010709c0 5.321575-0.48378 10.32063-2.096378 15.158425l14.513386 24.350236v-193.511811z m-54.022048 123.686299v-83.693858c0-5.482835-2.741417-11.288189-5.966614-14.190866-3.870236-4.192756-9.353071-6.450394-14.997165-6.450394-5.805354 0-11.126929 2.257638-14.674646 6.450394-4.031496 2.902677-5.805354 8.708031-5.805354 14.190866v116.913386c0.32252-11.449449 6.127874-22.737638 17.093543-28.542992 7.417953-4.676535 15.964724-5.966614 24.350236-4.676536z m281.720945 320.262047c0-5.321575-1.773858-10.48189-5.805354-13.545826-3.547717-3.708976-8.385512-5.966614-13.384567-5.966614h-75.469606l13.062047 22.898897 5.321575-0.483779c16.932283 0 32.735748 7.256693 44.185197 18.383622 11.449449 10.965669 18.383622 27.091654 18.383622 44.507716V655.6959576666666c0 17.738583-6.934173 33.219528-18.383622 44.507717v0.32252c-11.449449 11.610709-27.252913 18.383622-44.185197 18.383622-17.416063 0-33.058268-6.772913-44.023937-18.383622l-0.48378-0.32252c-11.288189-11.288189-18.222362-26.769134-18.222362-44.507717v-113.526929c0-6.611654 0.806299-12.578268 2.418898-18.222362l-38.218583-67.084094h-90.305512c-4.676535 0-9.675591 2.257638-13.707086 5.966614-3.386457 3.063937-5.644094 8.224252-5.644095 13.545826V721.6512336666667c0 4.999055 2.257638 10.15937 5.644095 13.707087 4.031496 3.708976 9.030551 6.127874 13.707086 6.127874h245.92126c4.999055 0 9.83685-2.418898 13.384567-6.127874 4.031496-3.547717 5.805354-8.708031 5.805354-13.707087v-245.276221z m-96.917165 96.917166V655.6959576666666c0 5.805354 1.935118 11.449449 5.805354 14.997166v0.483779c3.708976 3.225197 9.030551 5.482835 14.835906 5.482835 5.321575 0 11.126929-2.257638 14.513386-5.966614h0.483779c3.225197-3.547717 5.966614-9.191811 5.966614-14.997166v-98.691023c-3.063937 4.999055-7.579213 10.15937-13.868346 13.707086-8.869291 5.321575-18.706142 5.966614-27.736693 2.580158zM711.9151706666668 128.21501266666655c-19.512441 0-36.928504-7.901732-49.668032-20.641259-12.255748-12.417008-19.99622-29.833071-19.99622-48.861733 0-18.706142 7.740472-36.122205 19.99622-48.377952 12.739528-13.062047 30.155591-20.80252 49.668032-20.80252 18.706142 0 36.122205 7.740472 48.377953 20.80252h0.483779c11.771969 12.255748 19.834961 29.671811 19.834961 48.377952 0 19.028661-8.062992 36.444724-19.834961 48.861733-12.739528 12.739528-30.155591 20.64126-48.861732 20.641259z m19.189921-88.209133c-4.999055-5.321575-12.094488-8.546772-19.189921-8.546772-7.901732 0-14.997165 3.225197-19.673701 8.546772-4.999055 3.708976-7.579213 11.449449-7.579212 18.706141 0 7.579213 2.580157 14.352126 7.579212 19.673701 4.837795 4.676535 11.771969 7.579213 19.673701 7.579213 7.095433 0 14.190866-2.902677 19.189921-7.579213 4.837795-5.321575 7.579213-12.094488 7.579213-19.673701 0-7.256693-2.741417-14.997165-7.579213-18.706141z"  horiz-adv-x="1834" />

    
    <glyph glyph-name="you" unicode="&#58881;" d="M340.17543432617174 20.416446807861348l-38.049265502929664 38.050951354980484c-10.520335601806638 10.518649749755863-10.520335601806634 27.6132472229004 1.0658141036401503e-14 38.133582824707034L644.7457793273926 439.2197485656738c10.518649749755863 10.520335601806638 27.6132472229004 10.520335601806634 38.133582824707034-1.0658141036401503e-14l38.04926550292966-38.04926550292968c10.52033560180664-10.520335601806645 10.520335601806634-27.6132472229004-1.0658141036401503e-14-38.133582824707034L378.30901715087884 20.416446807861348C367.7903682250976 9.897797882080113 350.69577075195286 9.897797882080113 340.17543432617174 20.416446807861348L340.17543432617174 20.416446807861348zM644.7457793273926 324.98426303100587l-342.6196105041503 342.6212963562012c-10.518649749755854 10.518649749755863-10.51864974975585 27.611560546875 1.0658141036401503e-14 38.13189697265625l38.04926550292969 38.050951354980455c10.520335601806645 10.518649749755856 27.614933074951185 10.518649749755852 38.133582824707034-1.0658141036401503e-14L720.9286276550292 401.1671105346679c10.520335601806638-10.518649749755863 10.520335601806632-27.611560546875005-1.0658141036401503e-14-38.13189697265625l-38.04926550292969-38.050951354980455C672.3590265502929 314.46476953125 655.2652720031738 314.4647695312499 644.7457793273926 324.98426303100587L644.7457793273926 324.98426303100587z"  horiz-adv-x="1024" />

    
    <glyph glyph-name="shang" unicode="&#58882;" d="M875.5835531921387 212.17543432617174l-38.05095135498049-38.04926550292966c-10.518649749755864-10.520335601806636-27.613247222900405-10.52033560180663-38.133582824707034 1.4210854715202004e-14L456.7802514343262 516.7457793273926c-10.520335601806636 10.518649749755864-10.52033560180663 27.613247222900405 1.4210854715202004e-14 38.133582824707034l38.049265502929686 38.04926550292965c10.520335601806647 10.520335601806638 27.613247222900405 10.52033560180663 38.133582824707034-1.4210854715202004e-14L875.5835531921387 250.30901715087884C886.1022021179198 239.7903682250976 886.1022021179199 222.69577075195275 875.5835531921387 212.17543432617174L875.5835531921387 212.17543432617174zM571.0157369689941 516.7457793273926l-342.62129635620124-342.6196105041502c-10.518649749755864-10.518649749755852-27.611560546874998-10.518649749755845-38.13189697265625 1.7763568394002505e-14l-38.05095135498045 38.0492655029297c-10.518649749755854 10.520335601806647-10.518649749755848 27.61493307495119 1.4210854715202004e-14 38.133582824707034L494.8328894653321 592.9286276550292c10.518649749755864 10.520335601806636 27.61156054687501 10.520335601806627 38.13189697265625-1.7763568394002505e-14l38.05095135498045-38.0492655029297C581.53523046875 544.3590265502929 581.5352304687501 527.2652720031738 571.0157369689941 516.7457793273926L571.0157369689941 516.7457793273926z"  horiz-adv-x="1024" />

    
    <glyph glyph-name="shang1" unicode="&#58883;" d="M875.5835531921387 212.17543432617174l-38.05095135498049-38.04926550292966c-10.518649749755864-10.520335601806636-27.613247222900405-10.52033560180663-38.133582824707034 1.4210854715202004e-14L456.7802514343262 516.7457793273926c-10.520335601806636 10.518649749755864-10.52033560180663 27.613247222900405 1.4210854715202004e-14 38.133582824707034l38.049265502929686 38.04926550292965c10.520335601806647 10.520335601806638 27.613247222900405 10.52033560180663 38.133582824707034-1.4210854715202004e-14L875.5835531921387 250.30901715087884C886.1022021179198 239.7903682250976 886.1022021179199 222.69577075195275 875.5835531921387 212.17543432617174L875.5835531921387 212.17543432617174zM571.0157369689941 516.7457793273926l-342.62129635620124-342.6196105041502c-10.518649749755864-10.518649749755852-27.611560546874998-10.518649749755845-38.13189697265625 1.7763568394002505e-14l-38.05095135498045 38.0492655029297c-10.518649749755854 10.520335601806647-10.518649749755848 27.61493307495119 1.4210854715202004e-14 38.133582824707034L494.8328894653321 592.9286276550292c10.518649749755864 10.520335601806636 27.61156054687501 10.520335601806627 38.13189697265625-1.7763568394002505e-14l38.05095135498045-38.0492655029297C581.53523046875 544.3590265502929 581.5352304687501 527.2652720031738 571.0157369689941 516.7457793273926L571.0157369689941 516.7457793273926z"  horiz-adv-x="1024" />

    
    <glyph glyph-name="xyou" unicode="&#58886;" d="M299.41999999999985 846.5549999999998c11.517 5.329070518200751e-15 23.031999999999996-4.3939999999999895 31.818999999999996-13.179999999999987l417.5660000000001-417.55499999999984c8.439000000000004-8.437999999999997 13.181000000000003-19.885 13.181000000000008-31.820999999999998s-4.740999999999987-23.379999999999995-13.18099999999999-31.82100000000001l-417.5659999999998-417.555c-17.573999999999998-17.574000000000005-46.06499999999998-17.573000000000008-63.64-1.7763568394002505e-14-17.573000000000008 17.573999999999995-17.57300000000002 46.066999999999986 0.0009999999999799059 63.64l385.7449999999999 385.7350000000002-385.74600000000004 385.73499999999984c-17.57400000000001 17.572999999999993-17.57400000000002 46.066-0.001000000000015433 63.64 8.786999999999999 8.787000000000003 20.30399999999999 13.180000000000007 31.820999999999998 13.180000000000012z"  horiz-adv-x="1024" />

    
    <glyph glyph-name="you1" unicode="&#58887;" d="M512 896c-283.456 1.1368683772161603e-13-512-229.82399999999976-512.0000000000001-511.9999999999998s229.75999999999985-512 511.9999999999998-512.0000000000001C794.1759999999997-128 1024 101.82399999999984 1024 383.9999999999999s-228.60799999999978 512-511.9999999999998 512.0000000000001zM692.672 356.1600000000001L438.39999999999986 100.60799999999995c-7.9360000000000035-7.679999999999996-17.920000000000005-11.135999999999992-27.968000000000004-11.135999999999992s-20.031999999999996 3.456000000000003-28.031999999999996 11.136000000000008a39.232 39.232 0 0 0 1.7763568394002505e-14 55.80799999999999L610.1120000000001 384l-226.30399999999986 224.19200000000012a37.632 37.632 0 0 0 1.7763568394002505e-14 54.65599999999999 37.76 37.76 0 0 0 54.65599999999999-1.7763568394002505e-14l254.2719999999999-252.16000000000003a36.992 36.992 0 0 0 11.135999999999989-27.776000000000003c-2.6645352591003757e-15-8.96-3.3920000000000057-18.944-11.200000000000003-26.879999999999995l4.163336342344337e-17 0.128z"  horiz-adv-x="1024" />

    
    <glyph glyph-name="guanbi" unicode="&#58916;" d="M512 439.689846L94.247385 857.442462a39.542154 39.542154 0 0 1-55.689847 0 39.266462 39.266462 0 0 1 0-55.689847L456.310154 384 38.557538-33.752615a39.542154 39.542154 0 0 1 0-55.689847 39.266462 39.266462 0 0 1 55.689847 0L512 328.310154l417.752615-417.752616c15.163077-15.163077 40.290462-15.36 55.689847 0a39.266462 39.266462 0 0 1 0 55.689847L567.689846 384 985.442462 801.752615a39.542154 39.542154 0 0 1 0 55.689847 39.266462 39.266462 0 0 1-55.689847 0L512 439.689846z"  horiz-adv-x="1024" />

    
    <glyph glyph-name="bofang" unicode="&#58917;" d="M512 896C230.4 896 0 665.6 0 384s230.4-512 512-512 512 230.4 512 512S793.6 896 512 896z m0-981.333333C253.866667-85.333333 42.666667 125.866667 42.666667 384S253.866667 853.333333 512 853.333333s469.333333-211.2 469.333333-469.333333-211.2-469.333333-469.333333-469.333333zM672 454.4l-170.666667 113.066667c-57.6 38.4-106.666667 12.8-106.666666-57.6v-256c0-70.4 46.933333-96 106.666666-57.6l170.666667 113.066666c57.6 42.666667 57.6 106.666667 0 145.066667z"  horiz-adv-x="1024" />

    
    <glyph glyph-name="jiantoushang" unicode="&#58924;" d="M910.222222 99.555556c-17.066667 0-34.133333 5.688889-45.511111 17.066666L551.822222 486.4c-11.377778 5.688889-17.066667 11.377778-34.133333 11.377778-5.688889 0-22.755556-5.688889-28.444445-11.377778l-329.955555-364.088889c-22.755556-22.755556-56.888889-22.755556-79.644445-5.688889-22.755556 22.755556-22.755556 56.888889-5.688888 79.644445l329.955555 364.088889c28.444444 34.133333 73.955556 51.2 119.466667 51.2s85.333333-22.755556 119.466666-56.888889l312.888889-364.088889c22.755556-22.755556 17.066667-56.888889-5.688889-79.644445-11.377778-5.688889-28.444444-11.377778-39.822222-11.377777z"  horiz-adv-x="1024" />

    
    <glyph glyph-name="jiantouyou" unicode="&#58925;" d="M312.888889-99.555556c-17.066667 0-28.444444 5.688889-39.822222 17.066667-22.755556 22.755556-17.066667 56.888889 5.688889 79.644445l364.088888 329.955555c11.377778 11.377778 17.066667 22.755556 17.066667 34.133333 0 11.377778-5.688889 22.755556-17.066667 34.133334L273.066667 708.266667c-22.755556 22.755556-28.444444 56.888889-5.688889 79.644444 22.755556 22.755556 56.888889 28.444444 79.644444 5.688889l364.088889-312.888889c34.133333-28.444444 56.888889-73.955556 56.888889-119.466667s-17.066667-85.333333-51.2-119.466666l-364.088889-329.955556c-11.377778-5.688889-28.444444-11.377778-39.822222-11.377778z"  horiz-adv-x="1024" />

    
    <glyph glyph-name="jiantouxia" unicode="&#58926;" d="M517.688889 99.555556c-45.511111 0-85.333333 17.066667-119.466667 51.2L73.955556 514.844444c-22.755556 22.755556-17.066667 56.888889 5.688888 79.644445 22.755556 22.755556 56.888889 17.066667 79.644445-5.688889l329.955555-364.088889c5.688889-5.688889 17.066667-11.377778 28.444445-11.377778s22.755556 5.688889 34.133333 17.066667l312.888889 364.088889c22.755556 22.755556 56.888889 28.444444 79.644445 5.688889 22.755556-22.755556 28.444444-56.888889 5.688888-79.644445L637.155556 156.444444c-28.444444-39.822222-68.266667-56.888889-119.466667-56.888888 5.688889 0 0 0 0 0z"  horiz-adv-x="1024" />

    
    <glyph glyph-name="zhiding" unicode="&#58933;" d="M511.5648 537.6a12.7616 12.7616 0 0 1-9.6-3.8784L355.584 383.0912a12.8 12.8 0 1 1 18.368-17.8432L499.2 494.144V166.4a12.8 12.8 0 0 1 25.6 0V495.488l120.768-126.8736a12.8 12.8 0 1 1 18.5472 17.6512l-140.288 147.3536a12.7744 12.7744 0 0 1-10.5472 3.9168 12.9536 12.9536 0 0 1-1.7152 0.0512zM512-128C229.2352-128 0 101.2352 0 384S229.2352 896 512 896s512-229.2352 512-512-229.2352-512-512-512zM320 576h384a12.8 12.8 0 0 1 0 25.6H320a12.8 12.8 0 0 1 0-25.6z"  horiz-adv-x="1024" />

    
    <glyph glyph-name="xuanzhong" unicode="&#58936;" d="M535.770344-121.621782c-51.025747 0-102.051494 19.134655-140.320804 63.782184L19.134655 356.744597C-6.378218 382.257471 0 420.526781 25.512874 446.039655s63.782184 19.134655 89.295057-6.378219l376.314885-414.584195c25.512874-25.512874 63.782184-25.512874 89.295057-6.378218l6.378218 6.378218L1326.669424 873.380286c25.512874 25.512874 63.782184 31.891092 89.295057 6.378219 25.512874-25.512874 31.891092-63.782184 6.378219-89.295058L676.091149-57.839598l-12.756437-12.756437c-38.26931-31.891092-82.916839-51.025747-127.564368-51.025747z"  horiz-adv-x="1466" />

    
    <glyph glyph-name="zuo2" unicode="&#58888;" d="M244.641877 342.766152l452.449732-453.758047A58.248494 58.248494 0 0 1 779.344854-28.454233L368.078628 383.949658 779.344854 796.35355c22.696435 22.753318 22.639552 59.670577 0 82.480778a57.850311 57.850311 0 0 1-82.253245 0L244.641877 425.076281C233.265218 413.699622 227.576889 398.853082 227.576889 383.949658c0-15.01719 5.68833-29.86373 17.008105-41.183506z"  horiz-adv-x="1024" />

    


  </font>
</defs>
</svg>
